<svg
  width="12"
  height="13"
  viewBox="0 0 12 13"
  fill="none"
  xmlns="http://www.w3.org/2000/svg"
>
  <path
    d="M8.13281 4.51562C6.00045 4.51562 4.26562 6.25045 4.26562 8.38281C4.26562 10.5152 6.00045 12.25 8.13281 12.25C10.2652 12.25 12 10.5152 12 8.38281C12 6.25045 10.2652 4.51562 8.13281 4.51562ZM8.13281 8.03125C8.71439 8.03125 9.1875 8.50436 9.1875 9.08594C9.1875 9.54367 8.8927 9.93025 8.48438 10.0759V10.8438H7.78125V10.0759C7.37292 9.93025 7.07812 9.54367 7.07812 9.08594H7.78125C7.78125 9.27991 7.93884 9.4375 8.13281 9.4375C8.32678 9.4375 8.48438 9.27991 8.48438 9.08594C8.48438 8.89197 8.32678 8.73438 8.13281 8.73438C7.55123 8.73438 7.07812 8.26127 7.07812 7.67969C7.07812 7.22195 7.37292 6.83538 7.78125 6.68976V5.92188H8.48438V6.68976C8.8927 6.83538 9.1875 7.22195 9.1875 7.67969H8.48438C8.48438 7.48572 8.32678 7.32812 8.13281 7.32812C7.93884 7.32812 7.78125 7.48572 7.78125 7.67969C7.78125 7.87366 7.93884 8.03125 8.13281 8.03125Z"
    fill="#F3F6F8"
  />
  <path
    d="M3.91406 4.51562C6.0825 4.51562 7.78125 3.589 7.78125 2.40625C7.78125 1.2235 6.0825 0.25 3.91406 0.25C1.74563 0.25 0 1.2235 0 2.40625C0 3.589 1.74563 4.51562 3.91406 4.51562Z"
    fill="#F3F6F8"
  />
  <path
    d="M0 8.1615V8.73434C0 9.91709 1.74563 10.8437 3.91406 10.8437C4.03706 10.8437 4.15624 10.8324 4.27734 10.8265C4.00767 10.4025 3.80655 9.93197 3.68813 9.429C2.12004 9.38571 0.758484 8.90386 0 8.1615Z"
    fill="#F3F6F8"
  />
  <path
    d="M3.5794 8.71643C3.57134 8.60585 3.5625 8.49539 3.5625 8.38277C3.5625 8.01628 3.61052 7.66158 3.69241 7.31981C2.12238 7.27727 0.759164 6.79516 0 6.05212V6.62496C0 7.74497 1.57645 8.62516 3.5794 8.71643Z"
    fill="#F3F6F8"
  />
  <path
    d="M3.91406 6.62496C3.91444 6.62496 3.91474 6.62491 3.91514 6.62491C4.14701 6.07076 4.48406 5.57121 4.90263 5.15266C4.58512 5.19279 4.257 5.21871 3.91406 5.21871C2.24491 5.21871 0.795141 4.72097 0 3.94275V4.51558C0 5.69833 1.74563 6.62496 3.91406 6.62496Z"
    fill="#F3F6F8"
  />
</svg>