<svg
  width="12"
  height="13"
  viewBox="0 0 12 13"
  fill="none"
  xmlns="http://www.w3.org/2000/svg"
>
  <g clip-path="url(#clip0_6999_37059)">
    <path
      d="M8.13281 4.89062C6.00045 4.89062 4.26562 6.62545 4.26562 8.75781C4.26562 10.8902 6.00045 12.625 8.13281 12.625C10.2652 12.625 12 10.8902 12 8.75781C12 6.62545 10.2652 4.89062 8.13281 4.89062ZM8.13281 8.40625C8.71439 8.40625 9.1875 8.87936 9.1875 9.46094C9.1875 9.91867 8.8927 10.3053 8.48438 10.4509V11.2188H7.78125V10.4509C7.37292 10.3053 7.07812 9.91867 7.07812 9.46094H7.78125C7.78125 9.65491 7.93884 9.8125 8.13281 9.8125C8.32678 9.8125 8.48438 9.65491 8.48438 9.46094C8.48438 9.26697 8.32678 9.10938 8.13281 9.10938C7.55123 9.10938 7.07812 8.63627 7.07812 8.05469C7.07812 7.59695 7.37292 7.21038 7.78125 7.06476V6.29688H8.48438V7.06476C8.8927 7.21038 9.1875 7.59695 9.1875 8.05469H8.48438C8.48438 7.86072 8.32678 7.70312 8.13281 7.70312C7.93884 7.70312 7.78125 7.86072 7.78125 8.05469C7.78125 8.24866 7.93884 8.40625 8.13281 8.40625Z"
      fill="#AAB6BF"
    />
    <path
      d="M3.91406 4.89062C6.0825 4.89062 7.78125 3.964 7.78125 2.78125C7.78125 1.5985 6.0825 0.625 3.91406 0.625C1.74563 0.625 0 1.5985 0 2.78125C0 3.964 1.74563 4.89062 3.91406 4.89062Z"
      fill="#AAB6BF"
    />
    <path
      d="M0 8.5365V9.10934C0 10.2921 1.74563 11.2187 3.91406 11.2187C4.03706 11.2187 4.15624 11.2074 4.27734 11.2015C4.00767 10.7775 3.80655 10.307 3.68813 9.804C2.12004 9.76071 0.758484 9.27886 0 8.5365Z"
      fill="#AAB6BF"
    />
    <path
      d="M3.5794 9.09143C3.57134 8.98085 3.5625 8.87039 3.5625 8.75777C3.5625 8.39128 3.61052 8.03658 3.69241 7.69481C2.12238 7.65227 0.759164 7.17016 0 6.42712V6.99996C0 8.11997 1.57645 9.00016 3.5794 9.09143Z"
      fill="#AAB6BF"
    />
    <path
      d="M3.91406 6.99996C3.91444 6.99996 3.91474 6.99991 3.91514 6.99991C4.14701 6.44576 4.48406 5.94621 4.90263 5.52766C4.58512 5.56779 4.257 5.59371 3.91406 5.59371C2.24491 5.59371 0.795141 5.09597 0 4.31775V4.89058C0 6.07333 1.74563 6.99996 3.91406 6.99996Z"
      fill="#AAB6BF"
    />
  </g>
  <defs>
    <clipPath id="clip0_6999_37059">
      <rect
        width="12"
        height="12"
        fill="white"
        transform="translate(0 0.625)"
      />
    </clipPath>
  </defs>
</svg>