<svg
  width="14"
  height="14"
  viewBox="0 0 14 14"
  fill="none"
  xmlns="http://www.w3.org/2000/svg"
>
  <path
    d="M7 0.125C3.41 0.125 0.5 3.035 0.5 6.625C0.5 10.215 3.41 13.125 7 13.125C10.59 13.125 13.5 10.215 13.5 6.625C13.5 3.035 10.59 0.125 7 0.125ZM7 12.125C3.96875 12.125 1.5 9.65781 1.5 6.625C1.49742 5.88528 1.64533 5.15276 1.93474 4.47199C2.22414 3.79122 2.64898 3.17643 3.18344 2.665L7.71875 5.90625L7.125 6.84375L3.21875 4C2.8125 4.71875 2.38438 5.4375 2.38438 6.625C2.38438 9.17 4.455 11.2406 7 11.2406C9.545 11.2406 11.6156 9.17 11.6156 6.625C11.6156 4.22906 9.78062 2.25375 7.44219 2.03125V3.75H6.55781V1.12156C6.69031 1.12375 6.83719 1.125 7 1.125C10.0328 1.125 12.5 3.59375 12.5 6.625C12.5 9.65625 10.0328 12.125 7 12.125Z"
    fill="white"
  />
</svg>