<svg
  width="16"
  height="16"
  viewBox="0 0 16 16"
  fill="none"
  xmlns="http://www.w3.org/2000/svg"
>
  <path
    fill-rule="evenodd"
    clip-rule="evenodd"
    d="M8 2.50006C4.8934 2.50006 2.375 5.01846 2.375 8.12506C2.375 11.2317 4.8934 13.7501 8 13.7501C11.1066 13.7501 13.625 11.2317 13.625 8.12506C13.625 5.01846 11.1066 2.50006 8 2.50006ZM1.125 8.12506C1.125 4.3281 4.20304 1.25006 8 1.25006C11.797 1.25006 14.875 4.3281 14.875 8.12506C14.875 11.922 11.797 15.0001 8 15.0001C4.20304 15.0001 1.125 11.922 1.125 8.12506ZM8 3.43756C8.34518 3.43756 8.625 3.71738 8.625 4.06256V4.37506H8.72917C9.87976 4.37506 10.8125 5.3078 10.8125 6.4584C10.8125 6.80357 10.5327 7.0834 10.1875 7.0834C9.84232 7.0834 9.5625 6.80357 9.5625 6.4584C9.5625 5.99816 9.18941 5.62506 8.72917 5.62506H7.375C6.85723 5.62506 6.4375 6.0448 6.4375 6.56256C6.4375 7.08033 6.85723 7.50006 7.375 7.50006H8.625C9.83312 7.50006 10.8125 8.47944 10.8125 9.68756C10.8125 10.8957 9.83312 11.8751 8.625 11.8751V12.1876C8.625 12.5327 8.34518 12.8126 8 12.8126C7.65482 12.8126 7.375 12.5327 7.375 12.1876V11.8751H7.27083C6.12024 11.8751 5.1875 10.9423 5.1875 9.79173C5.1875 9.44655 5.46732 9.16673 5.8125 9.16673C6.15768 9.16673 6.4375 9.44655 6.4375 9.79173C6.4375 10.252 6.8106 10.6251 7.27083 10.6251H8.625C9.14277 10.6251 9.5625 10.2053 9.5625 9.68756C9.5625 9.1698 9.14277 8.75006 8.625 8.75006H7.375C6.16688 8.75006 5.1875 7.77069 5.1875 6.56256C5.1875 5.35444 6.16688 4.37506 7.375 4.37506V4.06256C7.375 3.71738 7.65482 3.43756 8 3.43756Z"
    fill="#279B37"
  />
</svg>