<svg
  width="32"
  height="33"
  viewBox="0 0 32 33"
  fill="none"
  xmlns="http://www.w3.org/2000/svg"
>
  <rect
    y="0.625"
    width="32"
    height="32"
    rx="16"
    fill="#283036"
  />
  <g clip-path="url(#clip0_6999_3174)">
    <path
      d="M11.0615 26.608L11.4297 26.5051C11.7839 26.4061 11.9907 26.0388 11.8918 25.6846L7.68202 10.6195C7.62261 10.4069 7.48118 10.2266 7.28884 10.1183C7.0965 10.0099 6.869 9.98247 6.6564 10.0419L6.60885 10.0552C6.1661 10.1789 5.90746 10.6381 6.03116 11.0808L10.241 26.1459C10.34 26.5001 10.7073 26.707 11.0615 26.608Z"
      fill="white"
    />
    <path
      d="M25.8859 16.0801C24.5509 15.4145 23.3159 14.5648 22.2169 13.556C22.1245 13.4714 22.0884 13.3416 22.1238 13.2215C22.6683 11.1616 23.0727 9.06712 23.3342 6.95254C23.3755 6.60081 23.1859 6.49737 22.9859 6.73875C19.0617 11.4318 12.2721 5.88012 8.23071 10.1456C8.27923 10.2365 8.3174 10.3325 8.34451 10.4318L11.0755 20.2112C15.1238 15.9974 21.8893 21.5146 25.8066 16.8319C26.0066 16.5905 26.0445 16.1491 25.8859 16.0801Z"
      fill="white"
    />
  </g>
  <defs>
    <clipPath id="clip0_6999_3174">
      <rect
        width="20"
        height="20"
        fill="white"
        transform="translate(6 6.625)"
      />
    </clipPath>
  </defs>
</svg>