<svg width="20" height="20" viewBox="0 0 20 20" fill="none" xmlns="http://www.w3.org/2000/svg">
  <path
    d="M16.6667 0H3.33335C1.49325 0.00212486 0.00212486 1.49325 0 3.33335V16.6667C0.00212486 18.5067 1.49325 19.9979 3.33335 20H16.6667C18.5067 19.9979 19.9979 18.5067 20 16.6667V3.33335C19.9979 1.49325 18.5067 0.00212486 16.6667 0ZM9.75588 12.2559L6.42254 15.5892C6.09724 15.9146 5.56972 15.9147 5.24432 15.5894C5.24425 15.5893 5.24419 15.5893 5.24412 15.5892L3.57745 13.9225C3.25617 13.593 3.26284 13.0654 3.59239 12.7441C3.91602 12.4286 4.43223 12.4286 4.75586 12.7441L5.83333 13.8216L8.57744 11.0774C8.90699 10.7562 9.43457 10.7629 9.75585 11.0924C10.0714 11.4161 10.0714 11.9322 9.75588 12.2559ZM9.75588 5.5892L6.42254 8.92255C6.09724 9.24794 5.56972 9.24804 5.24432 8.92274C5.24425 8.92268 5.24419 8.92261 5.24412 8.92255L3.57745 7.25587C3.24793 6.93459 3.24123 6.40697 3.56251 6.07746C3.88379 5.74794 4.41141 5.74124 4.74092 6.06252C4.74596 6.06742 4.75092 6.07239 4.75586 6.07746L5.83333 7.15496L8.57744 4.41078C8.89872 4.08123 9.4263 4.07457 9.75585 4.39584C10.0854 4.71712 10.0921 5.24471 9.77079 5.57426C9.76589 5.57933 9.76092 5.58429 9.75588 5.5892ZM15.8333 15H11.6667C11.2064 15 10.8333 14.6269 10.8333 14.1667C10.8333 13.7064 11.2064 13.3333 11.6667 13.3333H15.8333C16.2936 13.3333 16.6666 13.7064 16.6666 14.1667C16.6666 14.6269 16.2936 15 15.8333 15ZM15.8333 8.33334H11.6667C11.2064 8.33334 10.8333 7.96025 10.8333 7.5C10.8333 7.03976 11.2064 6.66667 11.6667 6.66667H15.8333C16.2936 6.66667 16.6666 7.03976 16.6666 7.5C16.6666 7.96025 16.2936 8.33334 15.8333 8.33334Z"
    fill="#657786" />
</svg>