<svg
  width="20"
  height="24"
  viewBox="0 0 20 24"
  fill="none"
  xmlns="http://www.w3.org/2000/svg"
  className="w-6 h-6 max-mobile-l:w-4 max-mobile-l:h-4"
>
  <path
    d="M4.39088 0.376751C4.38711 0.384286 4.38711 0.388054 4.38334 0.395589C4.3532 0.467171 4.33813 0.546289 4.33813 0.629174V1.43542V1.44296V1.45049V2.26051C4.33813 2.60712 4.6207 2.88591 4.96354 2.88591C5.31392 2.88591 5.59272 2.60335 5.59272 2.26051V0.629174C5.59272 0.542522 5.57388 0.463404 5.54374 0.388054C5.44955 0.162003 5.22727 0 4.96731 0C4.70735 0 4.48507 0.154468 4.39088 0.376751Z"
    fill="#657786"
  />
  <path
    d="M19.7243 13.9464V21.2968C19.7243 22.6418 18.6317 23.7344 17.2942 23.7344H2.82698C1.91525 23.7344 1.08263 23.2257 0.660665 22.412C0.479824 22.0616 0.389404 21.6886 0.389404 21.2968V4.06795C0.389404 2.72295 1.48198 1.63037 2.82698 1.63037H3.96854V2.25955C3.96854 2.81337 4.41687 3.2617 4.97447 3.2617C5.52829 3.2617 5.97662 2.81337 5.97662 2.25955V1.63037H7.3593V2.25955C7.3593 2.81337 7.80763 3.2617 8.36523 3.2617C8.91905 3.2617 9.36738 2.81337 9.36738 2.25955V1.63037H10.7501V2.25955C10.7501 2.81337 11.1984 3.2617 11.756 3.2617C12.3098 3.2617 12.7581 2.81337 12.7581 2.25955V1.63037H14.1408V2.25955C14.1408 2.81337 14.5892 3.2617 15.1467 3.2617C15.7006 3.2617 16.1489 2.81337 16.1489 2.25955V1.63037H17.2867C17.6785 1.63037 18.0515 1.72456 18.4019 1.9054C19.2194 2.31983 19.7243 3.14868 19.7243 4.06795V6.00068V13.9464Z"
    fill="#657786"
  />
  <path
    d="M7.77687 0.384286C7.77687 0.388054 7.77687 0.388054 7.7731 0.391821C7.74296 0.467171 7.72412 0.546289 7.72412 0.632942V2.26051C7.72412 2.60712 8.00668 2.88591 8.34953 2.88591C8.69991 2.88591 8.9787 2.60335 8.9787 2.26051V1.45049C8.9787 1.44672 8.9787 1.44672 8.9787 1.44296C8.9787 1.43919 8.9787 1.43919 8.9787 1.43542V0.629174C8.9787 0.546289 8.95987 0.467171 8.93349 0.395589C8.92973 0.391821 8.92972 0.384286 8.92596 0.380519C8.828 0.158235 8.60949 0 8.3533 0C8.0971 0 7.87482 0.158235 7.77687 0.384286Z"
    fill="#657786"
  />
  <path
    d="M14.5634 0.388054C14.5332 0.463404 14.5144 0.546289 14.5144 0.629174V2.26051C14.5144 2.60712 14.797 2.88591 15.1398 2.88591C15.4902 2.88591 15.769 2.60335 15.769 2.26051V0.629174C15.769 0.282563 15.4864 0 15.1436 0C14.8836 0 14.6576 0.158235 14.5634 0.388054Z"
    fill="#657786"
  />
  <path
    d="M11.1709 0.376751C11.1671 0.380519 11.1671 0.388054 11.1634 0.391821C11.1332 0.463404 11.1182 0.542522 11.1182 0.625407V1.43542V1.44296C11.1182 1.44296 11.1182 1.44672 11.1182 1.45049V2.26051C11.1182 2.60712 11.4007 2.88591 11.7436 2.88591C12.0939 2.88591 12.3727 2.60335 12.3727 2.26051V0.629174C12.3727 0.546289 12.3539 0.463404 12.3238 0.391821C12.3238 0.388054 12.3238 0.388054 12.32 0.384286C12.2258 0.158235 12.0035 0 11.7436 0C11.4911 0 11.2689 0.154468 11.1709 0.376751Z"
    fill="#657786"
  />
  <path
    d="M13.7324 7.87227C13.7324 7.96098 13.4367 8.57457 13.2888 8.87027C14.5308 9.53561 15.2848 10.8478 15.5066 11.4207C15.9058 11.9973 16.8188 13.5461 17.2254 14.2484V15.0801C17.2254 15.1688 17.1884 15.4497 17.17 15.5791C17.0591 15.7454 16.5601 15.8563 16.2274 15.8563C15.8947 15.8563 14.8967 15.0801 14.8413 14.9692C14.7969 14.8805 13.9727 14.3778 13.5661 14.1375L13.8987 14.0266C12.18 14.1929 11.5146 13.4167 11.2374 12.5296C11.0156 11.8199 11.4777 10.9402 11.7364 10.5891C9.91781 11.9641 9.09354 14.7104 8.90872 15.9117C7.26757 15.2907 6.70942 13.3982 6.6355 12.5296C8.14359 10.3562 10.6645 8.96268 11.7364 8.5376C12.4017 7.42871 13.4921 6.96668 13.9542 6.87427C13.9542 7.0406 13.7324 7.76138 13.7324 7.87227Z"
    fill="#FEFFFF"
  />
  <path
    d="M13.8981 10.478H13.011C13.0479 10.5704 13.1884 10.8107 13.4545 11.0325C13.7207 11.2543 14.3047 11.3836 14.5634 11.4206C14.5634 10.9327 14.1199 10.5889 13.8981 10.478Z"
    fill="#657786"
    stroke="#657786"
    stroke-width="0.110889"
  />
  <path
    d="M16.506 14.4097L16.5562 14.0584C16.5577 14.0479 16.5716 14.0453 16.5769 14.0544L16.7805 14.4109C16.7819 14.4132 16.7823 14.4159 16.7818 14.4186L16.7318 14.6684C16.73 14.6776 16.7182 14.6805 16.7123 14.6731L16.5084 14.4182C16.5065 14.4158 16.5056 14.4128 16.506 14.4097Z"
    fill="#657786"
    stroke="#657786"
    stroke-width="0.110889"
  />
  <path
    d="M6.5813 11.0884L7.0803 9.86863C7.74563 8.98152 10.1298 8.42708 11.2386 8.26074C10.2185 8.48252 7.70867 10.2383 6.5813 11.0884Z"
    fill="#FEFFFF"
  />
  <path
    d="M6.85713 15.4128C4.72907 12.8857 6.30118 8.70794 7.35462 6.93227C7.35564 6.93056 7.35613 6.92866 7.35612 6.92667C7.35443 6.57533 7.06299 6.34052 6.91483 6.26554C6.9133 6.26477 6.91167 6.2644 6.90995 6.2644H5.03373C5.02983 6.2644 5.02622 6.26645 5.02422 6.26979L4.37219 7.3565C4.36776 7.36389 4.37308 7.3733 4.3817 7.3733H5.39375C5.40282 7.3733 5.40792 7.38378 5.4026 7.39112C1.98332 12.1017 4.0909 18.2973 8.85313 19.4048C12.6569 20.2894 15.1596 18.0866 15.9434 16.8647C15.947 16.859 15.9445 16.8518 15.9384 16.849C14.9847 16.4133 14.3083 15.8377 14.0762 15.5912C14.0707 15.5853 14.0615 15.5868 14.0582 15.5941C13.4266 16.9767 9.50886 18.5617 6.85713 15.4128Z"
    fill="#FEFFFF"
  />
  <path
    d="M4.47144 10.6998L4.69321 9.86816L5.35855 10.0899L5.13677 10.9216L4.47144 10.6998Z"
    fill="#657786"
  />
  <path
    d="M4.47144 13.1393V12.2522H5.19221V13.1393H4.47144Z"
    fill="#657786"
  />
  <path
    d="M5.36104 15.468L4.91748 14.6364L5.52737 14.3037L5.97093 15.1354L5.36104 15.468Z"
    fill="#657786"
  />
  <path
    d="M6.74805 16.1333L6.1936 16.6877L6.91438 17.2976L7.41338 16.7432L6.74805 16.1333Z"
    fill="#657786"
  />
  <path
    d="M9.07571 17.6855L8.29949 17.3528L7.91138 18.0181L8.85393 18.4062L9.07571 17.6855Z"
    fill="#657786"
  />
  <path
    d="M10.1277 18.6282V17.9075H11.0702V18.6282H10.1277Z"
    fill="#657786"
  />
  <path
    d="M12.3458 18.3511L12.0686 17.6857L12.8448 17.2976L13.1775 17.9629L12.3458 18.3511Z"
    fill="#657786"
  />
  <path
    d="M14.1211 17.4089L13.6221 16.8545L14.1765 16.3L14.731 16.8545L14.1211 17.4089Z"
    fill="#657786"
  />
</svg>