<svg
  width="12"
  height="12"
  viewBox="0 0 12 13"
  fill="none"
  xmlns="http://www.w3.org/2000/svg"
>
  <path
    d="M10.6667 0.125122H1.33333C0.979711 0.125122 0.640573 0.265598 0.390524 0.515646C0.140476 0.765695 0 1.10483 0 1.45846V10.7918C0 11.1454 0.140476 11.4845 0.390524 11.7346C0.640573 11.9846 0.979711 12.1251 1.33333 12.1251H10.6667C11.4 12.1251 12 11.5251 12 10.7918V1.45846C12 0.725122 11.4 0.125122 10.6667 0.125122ZM10.6667 10.7918H1.33333V1.45846H10.6667V10.7918ZM5.33333 9.45846H6.66667V6.79179H9.33333V5.45846H6.66667V2.79179H5.33333V5.45846H2.66667V6.79179H5.33333V9.45846Z"
    fill="white"
  />
</svg>