<svg
  width="55"
  height="13"
  viewBox="0 0 55 13"
  fill="none"
  xmlns="http://www.w3.org/2000/svg"
>
  <g clip-path="url(#clip0_441_3863)">
    <path
      d="M34.8672 11.8828C34.7166 11.8844 34.5723 11.9425 34.4639 12.0452C34.3493 12.1453 34.2753 12.2826 34.2553 12.4319C34.2534 12.4602 34.2534 12.4886 34.2553 12.517C34.2539 12.6311 34.2936 12.7421 34.3675 12.8302C34.4119 12.8836 34.4681 12.9265 34.5318 12.9557C34.5955 12.9848 34.6651 12.9994 34.7353 12.9984C34.8823 12.9949 35.0226 12.9377 35.1288 12.8379C35.2448 12.7385 35.3203 12.6011 35.3413 12.4512C35.3432 12.4235 35.3432 12.3958 35.3413 12.3681C35.3449 12.2536 35.3049 12.1419 35.2292 12.0549C35.1853 12.0006 35.1293 11.957 35.0654 11.9275C35.0016 11.898 34.9318 11.8834 34.8613 11.8847L34.8672 11.8828Z"
      fill="#0256A0"
    />
    <mask
      id="mask0_441_3863"
      style="mask-type: luminance"
      maskUnits="userSpaceOnUse"
      x="34"
      y="11"
      width="2"
      height="2"
    >
      <path
        d="M34.8672 11.8828C34.7166 11.8844 34.5723 11.9425 34.4639 12.0452C34.3493 12.1453 34.2753 12.2826 34.2553 12.4319C34.2534 12.4602 34.2534 12.4886 34.2553 12.517C34.2539 12.6311 34.2936 12.7421 34.3675 12.8302C34.4119 12.8836 34.4681 12.9265 34.5318 12.9557C34.5955 12.9848 34.6651 12.9994 34.7353 12.9984C34.8823 12.9949 35.0226 12.9377 35.1288 12.8379C35.2448 12.7385 35.3203 12.6011 35.3413 12.4512C35.3432 12.4235 35.3432 12.3958 35.3413 12.3681C35.3449 12.2536 35.3049 12.1419 35.2292 12.0549C35.1853 12.0006 35.1293 11.957 35.0654 11.9275C35.0016 11.898 34.9318 11.8834 34.8613 11.8847L34.8672 11.8828Z"
        fill="white"
      />
    </mask>
    <g mask="url(#mask0_441_3863)">
      <path
        d="M35.3498 11.8828H34.2461V12.9945H35.3498V11.8828Z"
        fill="#0256A0"
      />
    </g>
    <path
      d="M36.1986 10.5771C35.8474 10.8392 35.6155 11.2268 35.5534 11.6559C35.5418 11.7302 35.5359 11.8051 35.5357 11.8802C35.5273 12.1516 35.6236 12.4161 35.8052 12.6207C35.9221 12.7496 36.0669 12.8512 36.2289 12.9181C36.3909 12.985 36.5661 13.0155 36.7416 13.0074C37.0173 13.0068 37.292 12.9744 37.56 12.9107L37.6033 12.8991L37.8394 12.0097L37.7076 12.0619C37.4789 12.1614 37.2334 12.2184 36.9836 12.2301C36.9087 12.2371 36.833 12.2287 36.7616 12.2054C36.6901 12.1821 36.6244 12.1444 36.5685 12.0948C36.5325 12.0576 36.5047 12.0135 36.4868 11.9653C36.4688 11.9171 36.4612 11.8657 36.4642 11.8145C36.4642 11.7835 36.4642 11.7487 36.4642 11.712C36.4794 11.6066 36.516 11.5052 36.5717 11.4139C36.6275 11.3225 36.7013 11.2431 36.7888 11.1803C36.9157 11.0914 37.0594 11.0284 37.2115 10.9952C37.3636 10.962 37.5209 10.9592 37.6741 10.987C37.7194 11.0005 37.8079 11.0315 37.9358 11.0779L38.0106 11.1088L38.2466 10.2639L38.1797 10.2426C37.9483 10.1738 37.7073 10.1412 37.4656 10.146C37.0051 10.1406 36.5571 10.2931 36.1986 10.5771Z"
      fill="#0256A0"
    />
    <mask
      id="mask1_441_3863"
      style="mask-type: luminance"
      maskUnits="userSpaceOnUse"
      x="35"
      y="10"
      width="4"
      height="4"
    >
      <path
        d="M36.1986 10.5771C35.8474 10.8392 35.6155 11.2268 35.5534 11.6559C35.5418 11.7302 35.5359 11.8051 35.5357 11.8802C35.5273 12.1516 35.6236 12.4161 35.8052 12.6207C35.9221 12.7496 36.0669 12.8512 36.2289 12.9181C36.3909 12.985 36.5661 13.0155 36.7416 13.0074C37.0173 13.0068 37.292 12.9744 37.56 12.9107L37.6033 12.8991L37.8394 12.0097L37.7076 12.0619C37.4789 12.1614 37.2334 12.2184 36.9836 12.2301C36.9087 12.2371 36.833 12.2287 36.7616 12.2054C36.6901 12.1821 36.6244 12.1444 36.5685 12.0948C36.5325 12.0576 36.5047 12.0135 36.4868 11.9653C36.4688 11.9171 36.4612 11.8657 36.4642 11.8145C36.4642 11.7835 36.4642 11.7487 36.4642 11.712C36.4794 11.6066 36.516 11.5052 36.5717 11.4139C36.6275 11.3225 36.7013 11.2431 36.7888 11.1803C36.9157 11.0914 37.0594 11.0284 37.2115 10.9952C37.3636 10.962 37.5209 10.9592 37.6741 10.987C37.7194 11.0005 37.8079 11.0315 37.9358 11.0779L38.0106 11.1088L38.2466 10.2639L38.1797 10.2426C37.9483 10.1738 37.7073 10.1412 37.4656 10.146C37.0051 10.1406 36.5571 10.2931 36.1986 10.5771Z"
        fill="white"
      />
    </mask>
    <g mask="url(#mask1_441_3863)">
      <path
        d="M38.2462 10.1426H35.5312V13.0001H38.2462V10.1426Z"
        fill="#0256A0"
      />
    </g>
    <path
      d="M39.1501 12.089C39.0893 12.0133 39.0585 11.9185 39.0635 11.8222C39.0618 11.7887 39.0618 11.7551 39.0635 11.7216C39.0942 11.5201 39.1783 11.33 39.3074 11.1706C39.3576 11.0951 39.4258 11.0328 39.506 10.989C39.5862 10.9452 39.6761 10.9213 39.7678 10.9193C39.8232 10.9151 39.8788 10.9247 39.9294 10.9474C39.98 10.97 40.0239 11.0049 40.057 11.0488C40.1112 11.1244 40.1382 11.2155 40.1337 11.3079C40.1365 11.3433 40.1365 11.3788 40.1337 11.4142C40.1067 11.6257 40.0171 11.8246 39.876 11.9865C39.8256 12.0595 39.7583 12.1198 39.6797 12.1625C39.6011 12.2052 39.5133 12.229 39.4235 12.232C39.3708 12.2324 39.3187 12.2205 39.2715 12.1973C39.2243 12.1742 39.1834 12.1403 39.152 12.0986M39.8996 10.1517C39.4728 10.1537 39.0625 10.3138 38.7507 10.6003C38.4226 10.8701 38.2075 11.2494 38.1467 11.6656C38.1373 11.7335 38.1327 11.802 38.133 11.8705C38.1286 12.1449 38.2274 12.4113 38.4103 12.6187C38.5245 12.7463 38.6662 12.8473 38.8252 12.9142C38.9842 12.9811 39.1563 13.0123 39.3291 13.0054C39.7542 13.0056 40.1632 12.8458 40.4721 12.5588C40.7979 12.276 41.0077 11.8863 41.0623 11.4626C41.0738 11.389 41.0798 11.3147 41.08 11.2402C41.0869 10.9742 40.993 10.7151 40.8164 10.5133C40.6994 10.3905 40.5566 10.2943 40.3979 10.2312C40.2393 10.1681 40.0686 10.1397 39.8976 10.1479L39.8996 10.1517Z"
      fill="#0256A0"
    />
    <mask
      id="mask2_441_3863"
      style="mask-type: luminance"
      maskUnits="userSpaceOnUse"
      x="38"
      y="10"
      width="4"
      height="4"
    >
      <path
        d="M39.1501 12.089C39.0893 12.0133 39.0585 11.9185 39.0635 11.8222C39.0618 11.7887 39.0618 11.7551 39.0635 11.7216C39.0942 11.5201 39.1783 11.33 39.3074 11.1706C39.3576 11.0951 39.4258 11.0328 39.506 10.989C39.5862 10.9452 39.6761 10.9213 39.7678 10.9193C39.8232 10.9151 39.8788 10.9247 39.9294 10.9474C39.98 10.97 40.0239 11.0049 40.057 11.0488C40.1112 11.1244 40.1382 11.2155 40.1337 11.3079C40.1365 11.3433 40.1365 11.3788 40.1337 11.4142C40.1067 11.6257 40.0171 11.8246 39.876 11.9865C39.8256 12.0595 39.7583 12.1198 39.6797 12.1625C39.6011 12.2052 39.5133 12.229 39.4235 12.232C39.3708 12.2324 39.3187 12.2205 39.2715 12.1973C39.2243 12.1742 39.1834 12.1403 39.152 12.0986M39.8996 10.1517C39.4728 10.1537 39.0625 10.3138 38.7507 10.6003C38.4226 10.8701 38.2075 11.2494 38.1467 11.6656C38.1373 11.7335 38.1327 11.802 38.133 11.8705C38.1286 12.1449 38.2274 12.4113 38.4103 12.6187C38.5245 12.7463 38.6662 12.8473 38.8252 12.9142C38.9842 12.9811 39.1563 13.0123 39.3291 13.0054C39.7542 13.0056 40.1632 12.8458 40.4721 12.5588C40.7979 12.276 41.0077 11.8863 41.0623 11.4626C41.0738 11.389 41.0798 11.3147 41.08 11.2402C41.0869 10.9742 40.993 10.7151 40.8164 10.5133C40.6994 10.3905 40.5566 10.2943 40.3979 10.2312C40.2393 10.1681 40.0686 10.1397 39.8976 10.1479L39.8996 10.1517Z"
        fill="white"
      />
    </mask>
    <g mask="url(#mask2_441_3863)">
      <path
        d="M41.0799 10.1416H38.127V12.9991H41.0799V10.1416Z"
        fill="#0256A0"
      />
    </g>
    <path
      d="M43.3217 10.1426C43.0493 10.1553 42.7884 10.2543 42.5781 10.4249L42.643 10.1851H41.7301L40.9629 12.9537H41.8738L42.3518 11.2407C42.6174 10.9817 42.8279 10.8637 42.942 10.8676C42.9587 10.8657 42.9756 10.8676 42.9913 10.8733C43.007 10.8791 43.0211 10.8884 43.0325 10.9005C43.0573 10.9405 43.0683 10.9872 43.064 11.0339C43.0658 11.0674 43.0658 11.1009 43.064 11.1344C43.0519 11.2127 43.0348 11.2902 43.0128 11.3664L42.58 12.9537H43.4929L43.969 11.2446C44.2306 10.9836 44.4431 10.8579 44.5828 10.8579C44.5969 10.8557 44.6114 10.8574 44.6247 10.8629C44.6379 10.8684 44.6493 10.8774 44.6575 10.8889C44.6825 10.9302 44.6935 10.9783 44.689 11.0261C44.6916 11.0648 44.6916 11.1035 44.689 11.1421C44.6795 11.2114 44.665 11.2798 44.6457 11.3471L44.1893 12.9537H45.1002L45.5625 11.2736C45.5844 11.2021 45.6009 11.1291 45.6117 11.0551C45.6209 10.995 45.6256 10.9342 45.6255 10.8734C45.6315 10.7034 45.5803 10.5363 45.4799 10.3978C45.4116 10.3128 45.3232 10.2454 45.2224 10.2016C45.1216 10.1578 45.0114 10.1389 44.9015 10.1464C44.5465 10.1735 44.2118 10.3196 43.9532 10.5602C43.9173 10.4318 43.8364 10.3199 43.7249 10.2442C43.6134 10.1686 43.4783 10.1339 43.3434 10.1464H43.3217"
      fill="#0256A0"
    />
    <mask
      id="mask3_441_3863"
      style="mask-type: luminance"
      maskUnits="userSpaceOnUse"
      x="40"
      y="10"
      width="6"
      height="3"
    >
      <path
        d="M43.3217 10.1426C43.0493 10.1553 42.7884 10.2543 42.5781 10.4249L42.643 10.1851H41.7301L40.9629 12.9537H41.8738L42.3518 11.2407C42.6174 10.9817 42.8279 10.8637 42.942 10.8676C42.9587 10.8657 42.9756 10.8676 42.9913 10.8733C43.007 10.8791 43.0211 10.8884 43.0325 10.9005C43.0573 10.9405 43.0683 10.9872 43.064 11.0339C43.0658 11.0674 43.0658 11.1009 43.064 11.1344C43.0519 11.2127 43.0348 11.2902 43.0128 11.3664L42.58 12.9537H43.4929L43.969 11.2446C44.2306 10.9836 44.4431 10.8579 44.5828 10.8579C44.5969 10.8557 44.6114 10.8574 44.6247 10.8629C44.6379 10.8684 44.6493 10.8774 44.6575 10.8889C44.6825 10.9302 44.6935 10.9783 44.689 11.0261C44.6916 11.0648 44.6916 11.1035 44.689 11.1421C44.6795 11.2114 44.665 11.2798 44.6457 11.3471L44.1893 12.9537H45.1002L45.5625 11.2736C45.5844 11.2021 45.6009 11.1291 45.6117 11.0551C45.6209 10.995 45.6256 10.9342 45.6255 10.8734C45.6315 10.7034 45.5803 10.5363 45.4799 10.3978C45.4116 10.3128 45.3232 10.2454 45.2224 10.2016C45.1216 10.1578 45.0114 10.1389 44.9015 10.1464C44.5465 10.1735 44.2118 10.3196 43.9532 10.5602C43.9173 10.4318 43.8364 10.3199 43.7249 10.2442C43.6134 10.1686 43.4783 10.1339 43.3434 10.1464H43.3217"
        fill="white"
      />
    </mask>
    <g mask="url(#mask3_441_3863)">
      <path
        d="M45.6255 10.1396H40.9629V12.9488H45.6255V10.1396Z"
        fill="#0256A0"
      />
    </g>
    <path
      d="M46.2057 11.8828C46.0549 11.8832 45.9101 11.9415 45.8024 12.0452C45.6879 12.1456 45.6134 12.2826 45.5919 12.4319C45.5919 12.4609 45.5919 12.488 45.5919 12.517C45.5896 12.6312 45.6294 12.7425 45.704 12.8302C45.7481 12.8836 45.8039 12.9265 45.8673 12.9556C45.9307 12.9848 46 12.9994 46.07 12.9984C46.2203 12.9973 46.3645 12.9399 46.4733 12.8379C46.5886 12.7379 46.6639 12.6008 46.6857 12.4512C46.6876 12.4235 46.6876 12.3958 46.6857 12.3681C46.6883 12.2528 46.6477 12.1407 46.5716 12.0529C46.528 11.9996 46.4725 11.9567 46.4094 11.9275C46.3464 11.8984 46.2774 11.8837 46.2077 11.8847L46.2057 11.8828Z"
      fill="#0256A0"
    />
    <mask
      id="mask4_441_3863"
      style="mask-type: luminance"
      maskUnits="userSpaceOnUse"
      x="45"
      y="11"
      width="2"
      height="2"
    >
      <path
        d="M46.2057 11.8828C46.0549 11.8832 45.9101 11.9415 45.8024 12.0452C45.6879 12.1456 45.6134 12.2826 45.5919 12.4319C45.5919 12.4609 45.5919 12.488 45.5919 12.517C45.5896 12.6312 45.6294 12.7425 45.704 12.8302C45.7481 12.8836 45.8039 12.9265 45.8673 12.9556C45.9307 12.9848 46 12.9994 46.07 12.9984C46.2203 12.9973 46.3645 12.9399 46.4733 12.8379C46.5886 12.7379 46.6639 12.6008 46.6857 12.4512C46.6876 12.4235 46.6876 12.3958 46.6857 12.3681C46.6883 12.2528 46.6477 12.1407 46.5716 12.0529C46.528 11.9996 46.4725 11.9567 46.4094 11.9275C46.3464 11.8984 46.2774 11.8837 46.2077 11.8847L46.2057 11.8828Z"
        fill="white"
      />
    </mask>
    <g mask="url(#mask4_441_3863)">
      <path
        d="M46.6896 11.8828H45.5859V12.9945H46.6896V11.8828Z"
        fill="#0256A0"
      />
    </g>
    <path
      d="M47.9313 12.1799C47.8966 12.1172 47.8802 12.0463 47.8841 11.975C47.8814 11.9351 47.8814 11.895 47.8841 11.8551C47.9156 11.6077 48.0257 11.3763 48.1988 11.1939C48.2868 11.1063 48.3925 11.0378 48.509 10.9928C48.6256 10.9479 48.7505 10.9275 48.8756 10.9329H48.9464L48.6297 12.0717C48.4857 12.1888 48.3069 12.2567 48.1201 12.265C48.0813 12.27 48.0418 12.2634 48.0067 12.2462C47.9717 12.229 47.9427 12.2019 47.9234 12.1683M47.6244 10.5907C47.2547 10.8927 47.0185 11.3237 46.9653 11.7933C46.9522 11.8738 46.9456 11.9553 46.9456 12.0369C46.9403 12.2532 46.9998 12.4663 47.1168 12.6497C47.1854 12.7587 47.2817 12.8481 47.3963 12.9091C47.5108 12.9702 47.6397 13.0007 47.77 12.9977C48.0029 12.9938 48.2302 12.9269 48.427 12.8044L48.3956 12.9533H49.3045L50.058 10.2466L49.9832 10.2311C49.6988 10.1704 49.4086 10.1405 49.1176 10.1422C48.5835 10.1172 48.0577 10.2796 47.6342 10.6004"
      fill="#0256A0"
    />
    <mask
      id="mask5_441_3863"
      style="mask-type: luminance"
      maskUnits="userSpaceOnUse"
      x="46"
      y="10"
      width="5"
      height="3"
    >
      <path
        d="M47.9313 12.1799C47.8966 12.1172 47.8802 12.0463 47.8841 11.975C47.8814 11.9351 47.8814 11.895 47.8841 11.8551C47.9156 11.6077 48.0257 11.3763 48.1988 11.1939C48.2868 11.1063 48.3925 11.0378 48.509 10.9928C48.6256 10.9479 48.7505 10.9275 48.8756 10.9329H48.9464L48.6297 12.0717C48.4857 12.1888 48.3069 12.2567 48.1201 12.265C48.0813 12.27 48.0418 12.2634 48.0067 12.2462C47.9717 12.229 47.9427 12.2019 47.9234 12.1683M47.6244 10.5907C47.2547 10.8927 47.0185 11.3237 46.9653 11.7933C46.9522 11.8738 46.9456 11.9553 46.9456 12.0369C46.9403 12.2532 46.9998 12.4663 47.1168 12.6497C47.1854 12.7587 47.2817 12.8481 47.3963 12.9091C47.5108 12.9702 47.6397 13.0007 47.77 12.9977C48.0029 12.9938 48.2302 12.9269 48.427 12.8044L48.3956 12.9533H49.3045L50.058 10.2466L49.9832 10.2311C49.6988 10.1704 49.4086 10.1405 49.1176 10.1422C48.5835 10.1172 48.0577 10.2796 47.6342 10.6004"
        fill="white"
      />
    </mask>
    <g mask="url(#mask5_441_3863)">
      <path
        d="M50.0557 10.1426H46.9453V13.0001H50.0557V10.1426Z"
        fill="#0256A0"
      />
    </g>
    <path
      d="M52.8757 10.1846H52.0573L51.5772 11.9246C51.3215 12.1643 51.1031 12.2765 50.9438 12.2726C50.9288 12.2749 50.9135 12.2731 50.8996 12.2673C50.8857 12.2614 50.8737 12.2519 50.8651 12.2397C50.8391 12.1945 50.8281 12.1425 50.8336 12.0909C50.8336 12.0541 50.8336 12.0116 50.8336 11.9633C50.8502 11.8629 50.8725 11.7634 50.9005 11.6655L51.3136 10.1826H50.4047L49.9227 11.8975C49.903 11.9729 49.8893 12.0464 49.8775 12.1121C49.8682 12.171 49.8636 12.2304 49.8637 12.29C49.8581 12.4539 49.9079 12.615 50.0053 12.7482C50.0745 12.8313 50.163 12.8968 50.2633 12.9392C50.3636 12.9816 50.4729 12.9996 50.5818 12.9918C50.8545 12.9898 51.1206 12.9091 51.3471 12.7598L51.29 12.9531H52.2068L52.976 10.1884L52.8757 10.1846Z"
      fill="#0256A0"
    />
    <mask
      id="mask6_441_3863"
      style="mask-type: luminance"
      maskUnits="userSpaceOnUse"
      x="49"
      y="10"
      width="4"
      height="3"
    >
      <path
        d="M52.8757 10.1846H52.0573L51.5772 11.9246C51.3215 12.1643 51.1031 12.2765 50.9438 12.2726C50.9288 12.2749 50.9135 12.2731 50.8996 12.2673C50.8857 12.2614 50.8737 12.2519 50.8651 12.2397C50.8391 12.1945 50.8281 12.1425 50.8336 12.0909C50.8336 12.0541 50.8336 12.0116 50.8336 11.9633C50.8502 11.8629 50.8725 11.7634 50.9005 11.6655L51.3136 10.1826H50.4047L49.9227 11.8975C49.903 11.9729 49.8893 12.0464 49.8775 12.1121C49.8682 12.171 49.8636 12.2304 49.8637 12.29C49.8581 12.4539 49.9079 12.615 50.0053 12.7482C50.0745 12.8313 50.163 12.8968 50.2633 12.9392C50.3636 12.9816 50.4729 12.9996 50.5818 12.9918C50.8545 12.9898 51.1206 12.9091 51.3471 12.7598L51.29 12.9531H52.2068L52.976 10.1884L52.8757 10.1846Z"
        fill="white"
      />
    </mask>
    <g mask="url(#mask6_441_3863)">
      <path
        d="M52.9696 10.1846H49.8711V12.9938H52.9696V10.1846Z"
        fill="#0256A0"
      />
    </g>
    <path
      d="M24.1981 2.84943L22.821 4.20279L23.1987 2.8359H20.7514L19.0949 8.92602H21.5285L22.7089 4.59913C22.9429 4.49898 23.1953 4.447 23.4506 4.4464C23.7307 4.44745 24.008 4.50195 24.267 4.60687C24.5653 4.71155 24.8385 4.87541 25.0697 5.08828L25.6599 2.86876C25.4312 2.76762 25.1827 2.71745 24.932 2.72183C24.6771 2.72239 24.4239 2.76353 24.1824 2.84363M7.8339 7.40639L8.65625 4.48893C8.8577 4.31361 9.11521 4.21307 9.38416 4.20473C9.50251 4.2029 9.61944 4.23026 9.72426 4.2843C9.82908 4.33834 9.91845 4.41733 9.98419 4.51407C10.0861 4.69456 10.1345 4.89952 10.1239 5.10568C10.1239 5.61222 9.73041 7.50886 8.39066 7.50886C8.20628 7.51147 8.02316 7.47864 7.85161 7.41219M10.0334 2.8243L8.74281 4.17766L9.1048 2.83396H6.71646L4.35567 11.48H6.74007L7.4188 9.01302C7.75236 9.08828 8.09367 9.12526 8.43591 9.12323C11.6466 9.12323 12.5673 6.15163 12.5673 4.83307C12.5673 3.47971 11.8158 2.68509 10.7377 2.68509C10.4906 2.68082 10.2457 2.73173 10.0216 2.83396M1.94372 3.13364C1.6685 3.32157 1.44368 3.5722 1.28849 3.86411C1.13329 4.15602 1.05233 4.48052 1.05252 4.80987C1.05252 5.67409 1.61714 6.00663 2.20734 6.33724C2.79754 6.66784 2.99427 6.77031 2.99427 7.05452C2.99427 7.41219 2.66573 7.57266 2.30177 7.57266C1.6742 7.57266 1.00924 7.16665 0.45642 6.81865L0.306903 7.35612L0.226243 7.65193L0 8.49488C0.781021 8.87444 1.63726 9.08101 2.50834 9.10003C4.17861 9.10003 5.33146 8.16427 5.33146 6.95592C5.33146 6.0569 4.69208 5.69922 4.03893 5.33962C3.60021 5.10568 3.38577 4.98387 3.38577 4.69967C3.38577 4.34199 3.72612 4.18152 4.14123 4.18152C4.70475 4.20348 5.24185 4.42216 5.65607 4.79827L6.09872 3.18197C5.39615 2.82897 4.61747 2.64728 3.82842 2.65223C3.16587 2.62308 2.50976 2.79084 1.94569 3.13364M15.233 7.30199C15.0741 7.09256 14.9979 6.83357 15.0186 6.57311C15.0186 5.94476 15.3707 4.20473 16.4351 4.20473C16.738 4.20473 17.2515 4.35553 17.2515 5.21781C17.2515 5.77269 16.9131 7.56106 15.8331 7.56106C15.7217 7.56068 15.6117 7.53743 15.5101 7.49282C15.4085 7.4482 15.3174 7.38321 15.2429 7.30199M12.648 6.30243C12.648 8.11981 13.968 9.10003 15.8724 9.10003C18.6463 9.10003 19.6359 6.93078 19.6359 5.52522C19.6359 3.94759 18.4673 2.65223 16.4351 2.65223C15.9402 2.63897 15.4477 2.72379 14.9869 2.90163C14.5261 3.07947 14.1065 3.34669 13.7531 3.68734C13.3997 4.02799 13.1197 4.4351 12.9298 4.88439C12.7399 5.33368 12.6441 5.81595 12.648 6.30243ZM27.0095 2.14762L26.8226 2.83783L25.4454 4.5624H26.3622L25.7464 6.76644C25.6864 7.01272 25.6489 7.26376 25.6343 7.51659C25.6343 8.40788 26.3366 9.12129 27.5151 9.12129C27.8643 9.11334 28.2109 9.06003 28.5459 8.96276L29.7696 7.65966L29.5375 8.50261C30.3178 8.88214 31.1734 9.08871 32.0438 9.10776C33.7141 9.10776 34.867 8.17201 34.867 6.96365C34.867 6.06463 34.2276 5.70696 33.5744 5.34735C33.1357 5.11341 32.9232 4.99161 32.9232 4.7074C32.9232 4.34973 33.2636 4.18926 33.6767 4.18926C34.2408 4.21143 34.7784 4.43004 35.1935 4.806L35.6342 3.1897C34.9311 2.8364 34.1517 2.6547 33.362 2.65996C32.6995 2.62774 32.0426 2.79284 31.4773 3.13364C31.202 3.32157 30.9772 3.5722 30.822 3.86411C30.6668 4.15602 30.5859 4.48052 30.5861 4.80987C30.5861 5.67409 31.1507 6.00663 31.7409 6.33724C32.3311 6.66784 32.5278 6.77031 32.5278 7.05452C32.5278 7.41219 32.2012 7.57266 31.8392 7.57266C31.2117 7.57266 30.5447 7.16665 29.9939 6.81865L29.8444 7.35612L29.6476 7.38899H29.5945L29.5139 7.40252L29.4391 7.41412H29.3722L29.2424 7.42766H29.2011H29.1086H29.0692H28.961C28.485 7.42766 28.1584 7.23432 28.1584 6.84765C28.1722 6.62169 28.2145 6.39829 28.2843 6.18257L28.7466 4.52953H30.0647L30.531 2.80496H29.2129L29.7067 1.11133L27.0095 2.14762Z"
      fill="#0256A0"
    />
    <mask
      id="mask7_441_3863"
      style="mask-type: luminance"
      maskUnits="userSpaceOnUse"
      x="0"
      y="1"
      width="36"
      height="11"
    >
      <path
        d="M24.1981 2.84943L22.821 4.20279L23.1987 2.8359H20.7514L19.0949 8.92602H21.5285L22.7089 4.59913C22.9429 4.49898 23.1953 4.447 23.4506 4.4464C23.7307 4.44745 24.008 4.50195 24.267 4.60687C24.5653 4.71155 24.8385 4.87541 25.0697 5.08828L25.6599 2.86876C25.4312 2.76762 25.1827 2.71745 24.932 2.72183C24.6771 2.72239 24.4239 2.76353 24.1824 2.84363M7.8339 7.40639L8.65625 4.48893C8.8577 4.31361 9.11521 4.21307 9.38416 4.20473C9.50251 4.2029 9.61944 4.23026 9.72426 4.2843C9.82908 4.33834 9.91845 4.41733 9.98419 4.51407C10.0861 4.69456 10.1345 4.89952 10.1239 5.10568C10.1239 5.61222 9.73041 7.50886 8.39066 7.50886C8.20628 7.51147 8.02316 7.47864 7.85161 7.41219M10.0334 2.8243L8.74281 4.17766L9.1048 2.83396H6.71646L4.35567 11.48H6.74007L7.4188 9.01302C7.75236 9.08828 8.09367 9.12526 8.43591 9.12323C11.6466 9.12323 12.5673 6.15163 12.5673 4.83307C12.5673 3.47971 11.8158 2.68509 10.7377 2.68509C10.4906 2.68082 10.2457 2.73173 10.0216 2.83396M1.94372 3.13364C1.6685 3.32157 1.44368 3.5722 1.28849 3.86411C1.13329 4.15602 1.05233 4.48052 1.05252 4.80987C1.05252 5.67409 1.61714 6.00663 2.20734 6.33724C2.79754 6.66784 2.99427 6.77031 2.99427 7.05452C2.99427 7.41219 2.66573 7.57266 2.30177 7.57266C1.6742 7.57266 1.00924 7.16665 0.45642 6.81865L0.306903 7.35612L0.226243 7.65193L0 8.49488C0.781021 8.87444 1.63726 9.08101 2.50834 9.10003C4.17861 9.10003 5.33146 8.16427 5.33146 6.95592C5.33146 6.0569 4.69208 5.69922 4.03893 5.33962C3.60021 5.10568 3.38577 4.98387 3.38577 4.69967C3.38577 4.34199 3.72612 4.18152 4.14123 4.18152C4.70475 4.20348 5.24185 4.42216 5.65607 4.79827L6.09872 3.18197C5.39615 2.82897 4.61747 2.64728 3.82842 2.65223C3.16587 2.62308 2.50976 2.79084 1.94569 3.13364M15.233 7.30199C15.0741 7.09256 14.9979 6.83357 15.0186 6.57311C15.0186 5.94476 15.3707 4.20473 16.4351 4.20473C16.738 4.20473 17.2515 4.35553 17.2515 5.21781C17.2515 5.77269 16.9131 7.56106 15.8331 7.56106C15.7217 7.56068 15.6117 7.53743 15.5101 7.49282C15.4085 7.4482 15.3174 7.38321 15.2429 7.30199M12.648 6.30243C12.648 8.11981 13.968 9.10003 15.8724 9.10003C18.6463 9.10003 19.6359 6.93078 19.6359 5.52522C19.6359 3.94759 18.4673 2.65223 16.4351 2.65223C15.9402 2.63897 15.4477 2.72379 14.9869 2.90163C14.5261 3.07947 14.1065 3.34669 13.7531 3.68734C13.3997 4.02799 13.1197 4.4351 12.9298 4.88439C12.7399 5.33368 12.6441 5.81595 12.648 6.30243ZM27.0095 2.14762L26.8226 2.83783L25.4454 4.5624H26.3622L25.7464 6.76644C25.6864 7.01272 25.6489 7.26376 25.6343 7.51659C25.6343 8.40788 26.3366 9.12129 27.5151 9.12129C27.8643 9.11334 28.2109 9.06003 28.5459 8.96276L29.7696 7.65966L29.5375 8.50261C30.3178 8.88214 31.1734 9.08871 32.0438 9.10776C33.7141 9.10776 34.867 8.17201 34.867 6.96365C34.867 6.06463 34.2276 5.70696 33.5744 5.34735C33.1357 5.11341 32.9232 4.99161 32.9232 4.7074C32.9232 4.34973 33.2636 4.18926 33.6767 4.18926C34.2408 4.21143 34.7784 4.43004 35.1935 4.806L35.6342 3.1897C34.9311 2.8364 34.1517 2.6547 33.362 2.65996C32.6995 2.62774 32.0426 2.79284 31.4773 3.13364C31.202 3.32157 30.9772 3.5722 30.822 3.86411C30.6668 4.15602 30.5859 4.48052 30.5861 4.80987C30.5861 5.67409 31.1507 6.00663 31.7409 6.33724C32.3311 6.66784 32.5278 6.77031 32.5278 7.05452C32.5278 7.41219 32.2012 7.57266 31.8392 7.57266C31.2117 7.57266 30.5447 7.16665 29.9939 6.81865L29.8444 7.35612L29.6476 7.38899H29.5945L29.5139 7.40252L29.4391 7.41412H29.3722L29.2424 7.42766H29.2011H29.1086H29.0692H28.961C28.485 7.42766 28.1584 7.23432 28.1584 6.84765C28.1722 6.62169 28.2145 6.39829 28.2843 6.18257L28.7466 4.52953H30.0647L30.531 2.80496H29.2129L29.7067 1.11133L27.0095 2.14762Z"
        fill="white"
      />
    </mask>
    <g mask="url(#mask7_441_3863)">
      <path d="M35.6342 1.11133H0V11.4703H35.6342V1.11133Z" fill="#0256A0" />
    </g>
    <path
      d="M37.637 7.38935L38.477 4.29595C38.6794 4.22932 38.8912 4.19473 39.1046 4.19349C40.527 4.19349 39.8404 6.20226 39.5473 6.7378C39.4246 6.975 39.2578 7.18749 39.0554 7.36422C38.8305 7.56134 38.5439 7.67726 38.2429 7.69289C38.1243 7.69636 38.0067 7.67058 37.9009 7.61789C37.795 7.5652 37.7043 7.4873 37.637 7.39128M37.1353 0L34.625 9.15065H37.1491L37.5425 7.72769L38.1327 9.15065C38.3347 9.26761 38.5676 9.3228 38.8016 9.30919C39.9466 9.30919 41.1978 8.47204 41.9828 7.03554C42.7481 5.63965 43.4858 2.49405 40.0863 2.49405C39.7035 2.49415 39.3217 2.53367 38.9472 2.61199L39.6574 0H37.1353Z"
      fill="#F2A71E"
    />
    <mask
      id="mask8_441_3863"
      style="mask-type: luminance"
      maskUnits="userSpaceOnUse"
      x="34"
      y="0"
      width="9"
      height="10"
    >
      <path
        d="M37.637 7.38935L38.477 4.29595C38.6794 4.22932 38.8912 4.19473 39.1046 4.19349C40.527 4.19349 39.8404 6.20226 39.5473 6.7378C39.4246 6.975 39.2578 7.18749 39.0554 7.36422C38.8305 7.56134 38.5439 7.67726 38.2429 7.69289C38.1243 7.69636 38.0067 7.67058 37.9009 7.61789C37.795 7.5652 37.7043 7.4873 37.637 7.39128M37.1353 0L34.625 9.15065H37.1491L37.5425 7.72769L38.1327 9.15065C38.3347 9.26761 38.5676 9.3228 38.8016 9.30919C39.9466 9.30919 41.1978 8.47204 41.9828 7.03554C42.7481 5.63965 43.4858 2.49405 40.0863 2.49405C39.7035 2.49415 39.3217 2.53367 38.9472 2.61199L39.6574 0H37.1353Z"
        fill="white"
      />
    </mask>
    <g mask="url(#mask8_441_3863)">
      <path d="M43.4898 0H34.6289V9.30919H43.4898V0Z" fill="#F2A71E" />
    </g>
    <path
      d="M45.3528 4.8451C45.642 4.36563 45.9843 4.12975 46.3935 4.12975C46.4749 4.12278 46.5569 4.13472 46.6327 4.16461C46.7086 4.1945 46.7762 4.2415 46.8302 4.30182C46.8809 4.37338 46.9161 4.45439 46.9337 4.53985C46.9513 4.62531 46.9509 4.71341 46.9325 4.7987C46.9325 4.81223 46.9325 4.82964 46.9325 4.84704L45.3528 4.8451ZM44.0681 3.51494C43.3388 4.16419 42.8693 5.04791 42.7441 6.00706C42.6123 6.96215 42.7992 7.74709 43.2969 8.32711C43.7946 8.90712 44.5343 9.20679 45.4885 9.20872C46.2381 9.18377 46.9776 9.03135 47.6742 8.75825L47.7627 8.72538L48.4592 6.69534L48.0421 6.86161C47.0388 7.26569 46.301 7.46869 45.8426 7.46869C45.6886 7.48055 45.534 7.45541 45.3921 7.39546C45.2502 7.3355 45.1253 7.24253 45.0281 7.12455C44.9477 7.00438 44.8927 6.86955 44.8663 6.72806C44.8399 6.58657 44.8428 6.44131 44.8747 6.30093H48.7228L48.768 6.16946C48.87 5.88134 48.9432 5.58413 48.9864 5.28204C49.1005 4.45843 48.9372 3.77981 48.5044 3.26554C48.0716 2.75126 47.4283 2.49219 46.5961 2.49219C45.6502 2.49711 44.7434 2.86396 44.0681 3.51494Z"
      fill="#F2A71E"
    />
    <mask
      id="mask9_441_3863"
      style="mask-type: luminance"
      maskUnits="userSpaceOnUse"
      x="42"
      y="2"
      width="8"
      height="8"
    >
      <path
        d="M45.3528 4.8451C45.642 4.36563 45.9843 4.12975 46.3935 4.12975C46.4749 4.12278 46.5569 4.13472 46.6327 4.16461C46.7086 4.1945 46.7762 4.2415 46.8302 4.30182C46.8809 4.37338 46.9161 4.45439 46.9337 4.53985C46.9513 4.62531 46.9509 4.71341 46.9325 4.7987C46.9325 4.81223 46.9325 4.82964 46.9325 4.84704L45.3528 4.8451ZM44.0681 3.51494C43.3388 4.16419 42.8693 5.04791 42.7441 6.00706C42.6123 6.96215 42.7992 7.74709 43.2969 8.32711C43.7946 8.90712 44.5343 9.20679 45.4885 9.20872C46.2381 9.18377 46.9776 9.03135 47.6742 8.75825L47.7627 8.72538L48.4592 6.69534L48.0421 6.86161C47.0388 7.26569 46.301 7.46869 45.8426 7.46869C45.6886 7.48055 45.534 7.45541 45.3921 7.39546C45.2502 7.3355 45.1253 7.24253 45.0281 7.12455C44.9477 7.00438 44.8927 6.86955 44.8663 6.72806C44.8399 6.58657 44.8428 6.44131 44.8747 6.30093H48.7228L48.768 6.16946C48.87 5.88134 48.9432 5.58413 48.9864 5.28204C49.1005 4.45843 48.9372 3.77981 48.5044 3.26554C48.0716 2.75126 47.4283 2.49219 46.5961 2.49219C45.6502 2.49711 44.7434 2.86396 44.0681 3.51494Z"
        fill="white"
      />
    </mask>
    <g mask="url(#mask9_441_3863)">
      <path
        d="M49.0977 2.48438H42.6035V9.20478H49.0977V2.48438Z"
        fill="#F2A71E"
      />
    </g>
    <path
      d="M50.734 2.14834L50.5373 2.83855L49.1602 4.56312H50.0769L49.4651 6.76716C49.4067 7.01368 49.3699 7.26464 49.3549 7.51731C49.3549 8.4086 50.0573 9.12201 51.2357 9.12201C51.5843 9.1142 51.9303 9.06089 52.2646 8.96347L53.8227 7.31431L53.5709 7.36458L53.3742 7.39744H53.323L53.2424 7.41098C53.2172 7.41295 53.1922 7.41683 53.1676 7.42258H53.1007L52.9728 7.43611H52.9296H52.8351H52.7997H52.6895C52.2135 7.43611 51.8869 7.24277 51.8869 6.8561C51.9009 6.63033 51.9425 6.40703 52.0108 6.19102L52.4751 4.53798H53.7952L54.2595 2.81342H52.9414L53.4194 1.08691L50.734 2.14834Z"
      fill="#F2A71E"
    />
    <mask
      id="mask10_441_3863"
      style="mask-type: luminance"
      maskUnits="userSpaceOnUse"
      x="49"
      y="1"
      width="6"
      height="9"
    >
      <path
        d="M50.734 2.14834L50.5373 2.83855L49.1602 4.56312H50.0769L49.4651 6.76716C49.4067 7.01368 49.3699 7.26464 49.3549 7.51731C49.3549 8.4086 50.0573 9.12201 51.2357 9.12201C51.5843 9.1142 51.9303 9.06089 52.2646 8.96347L53.8227 7.31431L53.5709 7.36458L53.3742 7.39744H53.323L53.2424 7.41098C53.2172 7.41295 53.1922 7.41683 53.1676 7.42258H53.1007L52.9728 7.43611H52.9296H52.8351H52.7997H52.6895C52.2135 7.43611 51.8869 7.24277 51.8869 6.8561C51.9009 6.63033 51.9425 6.40703 52.0108 6.19102L52.4751 4.53798H53.7952L54.2595 2.81342H52.9414L53.4194 1.08691L50.734 2.14834Z"
        fill="white"
      />
    </mask>
    <g mask="url(#mask10_441_3863)">
      <path
        d="M54.2614 1.1123H49.1641V9.11454H54.2614V1.1123Z"
        fill="#F2A71E"
      />
    </g>
  </g>
  <defs>
    <clipPath id="clip0_441_3863">
      <rect width="54.2609" height="13" fill="white" />
    </clipPath>
  </defs>
</svg>
