<svg width="29" height="30" viewBox="0 0 29 30" fill="none" xmlns="http://www.w3.org/2000/svg">
<path d="M17.3576 0H11.2852V5.90424H17.3576V0Z" fill="#D84800"/>
<path d="M17.3576 0H11.2852V0.65351H17.3576V0Z" fill="#FF4B00"/>
<path d="M3.79812 3.70801C3.79812 3.70801 1.15497 8.41199 0 11.9707C0.287933 12.8377 2.93109 14.6139 5.52895 14.423C6.39275 12.0678 7.1142 11.0584 7.1142 11.0584C7.1142 11.0584 7.30508 4.90827 3.79812 3.70801Z" fill="#FF5C00"/>
<path d="M24.8043 3.70801C24.8043 3.70801 27.4475 8.41199 28.5992 11.9707C28.3113 12.8377 25.6681 14.6139 23.0735 14.423C22.2097 12.0678 21.4883 11.0584 21.4883 11.0584C21.4883 11.0584 21.2941 4.90827 24.8043 3.70801Z" fill="#FF5C00"/>
<g opacity="0.1">
<path d="M21.8512 7.76465C21.6007 8.84867 21.4791 9.95848 21.4888 11.071C21.4888 11.071 22.2103 12.0804 23.0741 14.4356C23.6919 14.4721 24.3117 14.4132 24.9117 14.2609C23.3426 9.98723 22.0162 7.99758 21.8512 7.76465Z" fill="#070707"/>
</g>
<g opacity="0.1">
<path d="M6.74862 7.76465C6.62569 7.93935 5.28308 9.91606 3.68166 14.2771C4.28537 14.4262 4.90837 14.4818 5.52895 14.4421C6.39275 12.0869 7.1142 11.0775 7.1142 11.0775C7.12201 9.96273 6.99932 8.85088 6.74862 7.76465Z" fill="#070707"/>
</g>
<path d="M20.8625 1.68877C18.7953 0.918796 17.6888 0 17.3038 0C17.3038 0 17.4429 2.41346 14.2983 4.74927C11.157 2.41993 11.2928 0 11.2928 0C10.9111 0 9.80464 0.912326 7.73411 1.6823C5.66358 2.45228 4.32421 2.93756 3.79688 3.70754C4.52803 4.2834 6.82502 5.58072 6.82502 11.4947V29.0359C9.25219 29.6836 11.7539 30.0099 14.266 30.0065C16.7987 30.0344 19.323 29.7077 21.7652 29.0359V11.4947C21.7652 5.58072 24.0719 4.2834 24.7933 3.70754C24.2627 2.93756 22.9266 2.45875 20.8625 1.68877Z" fill="#FF5C00"/>
<path d="M13.7941 5.43513L14.2988 5.82336L14.8067 5.42866C17.2752 3.35814 17.8575 1.29408 17.9901 0.352637C17.7618 0.187179 17.5037 0.0674354 17.2299 0C17.2299 0 17.3657 2.41346 14.2988 4.74927C11.2351 2.41993 11.3677 0 11.3677 0C11.0946 0.0660741 10.8366 0.183556 10.6074 0.346166C10.7433 1.29408 11.3224 3.35814 13.7941 5.43513Z" fill="#FF4B00"/>
<g opacity="0.1">
<path d="M18.6478 14.1766C18.4828 18.9841 18.2337 26.2051 18.1172 29.7638C19.3569 29.6236 20.5829 29.3812 21.7827 29.0391V11.4946C21.7827 9.27207 22.1062 7.703 22.5526 6.57715C20.6633 8.01034 18.7804 10.3106 18.6478 14.1766Z" fill="#070707"/>
<path d="M10.4876 29.7638C10.3518 26.2051 10.1156 18.9809 9.9506 14.1766C9.81795 10.3106 7.93507 8.01034 6.06836 6.57715C6.51158 7.703 6.83834 9.27207 6.83834 11.4946V29.0359C8.03539 29.3672 9.25508 29.6105 10.4876 29.7638Z" fill="#070707"/>
</g>
</svg>
