<svg width="40" height="40" viewBox="0 0 40 40" fill="none" xmlns="http://www.w3.org/2000/svg">
  <rect width="40" height="40" rx="6" fill="#EFEDFB" />
  <path
    d="M29.4944 23.8233C29.0463 23.8233 28.6405 23.7811 28.277 23.6965C27.9135 23.612 27.6006 23.4894 27.3386 23.3288C27.0765 23.1597 26.8651 22.961 26.7045 22.7327C26.5439 22.496 26.4424 22.2339 26.4001 21.9465L27.8078 21.4139C27.8416 21.5999 27.9304 21.7774 28.0741 21.9465C28.2263 22.1071 28.4292 22.2382 28.6828 22.3396C28.9364 22.4326 29.245 22.4791 29.6085 22.4791C29.989 22.4791 30.2849 22.4242 30.4962 22.3143C30.7076 22.1959 30.8133 22.031 30.8133 21.8197C30.8133 21.6591 30.7541 21.5322 30.6357 21.4392C30.5174 21.3462 30.3441 21.2659 30.1158 21.1983C29.896 21.1307 29.6254 21.0673 29.3042 21.0081C28.9829 20.932 28.6574 20.8517 28.3277 20.7671C28.0065 20.6741 27.7063 20.5515 27.4273 20.3994C27.1568 20.2472 26.937 20.0485 26.7679 19.8033C26.5988 19.5582 26.5143 19.2454 26.5143 18.8649C26.5143 18.4507 26.6242 18.0914 26.844 17.787C27.0638 17.4827 27.3851 17.2459 27.8078 17.0769C28.2389 16.8993 28.7547 16.8105 29.3549 16.8105C29.9044 16.8105 30.3863 16.8866 30.8006 17.0388C31.2148 17.1825 31.553 17.3981 31.8151 17.6856C32.0772 17.9646 32.2505 18.3027 32.335 18.7001L30.8513 19.1693C30.8175 18.9579 30.7372 18.7762 30.6104 18.624C30.4835 18.4634 30.3102 18.345 30.0904 18.2689C29.8791 18.1928 29.6297 18.1548 29.3422 18.1548C28.9871 18.1548 28.7082 18.214 28.5053 18.3323C28.3108 18.4507 28.2136 18.6071 28.2136 18.8015C28.2136 18.9622 28.277 19.0932 28.4038 19.1946C28.5391 19.2961 28.7208 19.3806 28.9491 19.4483C29.1858 19.5075 29.4648 19.5709 29.7861 19.6385C30.1242 19.7061 30.4497 19.7864 30.7625 19.8794C31.0838 19.964 31.3755 20.0781 31.6375 20.2218C31.8996 20.3656 32.1068 20.5558 32.2589 20.7925C32.4196 21.0292 32.4999 21.3378 32.4999 21.7182C32.4999 22.1579 32.3815 22.5341 32.1448 22.8469C31.9081 23.1597 31.5657 23.4006 31.1176 23.5697C30.6695 23.7388 30.1285 23.8233 29.4944 23.8233Z"
    fill="#7B68EE" />
  <path
    d="M18.72 25.7509V20.2979V16.9881H20.2417V18.8522L20.4573 18.8776C20.5419 18.4211 20.6771 18.0406 20.8631 17.7363C21.0576 17.4235 21.3027 17.191 21.5986 17.0388C21.903 16.8866 22.2581 16.8105 22.6639 16.8105C23.2472 16.8105 23.746 16.9543 24.1603 17.2417C24.5745 17.5292 24.8916 17.9392 25.1114 18.4718C25.3396 18.996 25.4538 19.6216 25.4538 20.3486C25.4538 21.025 25.3523 21.6252 25.1494 22.1494C24.9465 22.6651 24.6464 23.0751 24.249 23.3795C23.8517 23.6754 23.3571 23.8233 22.7653 23.8233C22.3426 23.8233 21.9833 23.743 21.6874 23.5824C21.4 23.4218 21.159 23.1935 20.9646 22.8976C20.7701 22.5932 20.6137 22.2339 20.4954 21.8197H20.2671C20.3178 22.0564 20.3643 22.2973 20.4066 22.5425C20.4489 22.7792 20.4827 23.0117 20.508 23.24C20.5334 23.4683 20.5461 23.6881 20.5461 23.8994V25.7509H18.72ZM22.1313 22.3523C22.4272 22.3523 22.6808 22.2678 22.8921 22.0987C23.1035 21.9296 23.2641 21.6971 23.374 21.4012C23.4924 21.0968 23.5516 20.7502 23.5516 20.3613C23.5516 19.9386 23.4924 19.5793 23.374 19.2834C23.2557 18.9791 23.0866 18.7466 22.8668 18.5859C22.647 18.4169 22.3891 18.3323 22.0932 18.3323C21.8227 18.3323 21.5902 18.3915 21.3957 18.5098C21.2097 18.6198 21.0491 18.7719 20.9138 18.9664C20.787 19.1608 20.694 19.368 20.6349 19.5878C20.5757 19.8076 20.5461 20.0232 20.5461 20.2345V20.4628C20.5461 20.6403 20.5672 20.8179 20.6095 20.9954C20.6518 21.1645 20.7152 21.3293 20.7997 21.49C20.8927 21.6506 21.0026 21.7985 21.1294 21.9338C21.2562 22.0606 21.4042 22.1621 21.5733 22.2382C21.7424 22.3143 21.9284 22.3523 22.1313 22.3523Z"
    fill="#7B68EE" />
  <path
    d="M15.2652 23.6459V16.9882H17.0913V23.6459H15.2652ZM16.1782 16.0244C15.8232 16.0244 15.5484 15.9483 15.3539 15.7961C15.1679 15.644 15.075 15.4284 15.075 15.1494C15.075 14.8535 15.1679 14.6295 15.3539 14.4773C15.5484 14.3251 15.8232 14.249 16.1782 14.249C16.5418 14.249 16.8165 14.3251 17.0025 14.4773C17.197 14.6295 17.2942 14.8535 17.2942 15.1494C17.2942 15.4284 17.197 15.644 17.0025 15.7961C16.8165 15.9483 16.5418 16.0244 16.1782 16.0244Z"
    fill="#7B68EE" />
  <path
    d="M9.93482 23.6456V15.2759H11.7736V23.6456H9.93482ZM7.5 16.8103V15.2759H14.2211V16.8103H7.5Z"
    fill="#7B68EE" />
</svg>