<svg
  width="126"
  height="30"
  viewBox="0 0 126 30"
  fill="none"
  xmlns="http://www.w3.org/2000/svg"
>
  <path
    d="M36.0693 18.611V2.62476H31.5537V23.0965H35.1437H36.0693H39.8289V18.611H36.0693Z"
    fill="#283036"
  />
  <path
    d="M88.9726 18.611V2.62476H84.4556V23.0965H88.0455H88.9726H92.7322V18.611H88.9726Z"
    fill="#283036"
  />
  <path
    d="M56.4742 22.7508H51.9279C51.6777 22.2303 51.5493 21.6605 51.5521 21.0838C50.548 22.4236 48.9555 23.0935 46.7747 23.0935C45.134 23.0935 43.818 22.6908 42.8265 21.8853C41.8351 21.0799 41.3379 19.9666 41.335 18.5455C41.335 15.7865 43.2847 14.2439 47.1842 13.9176L49.5239 13.7158C50.8166 13.5822 51.4629 13.0933 51.4629 12.2492C51.4629 11.253 50.7006 10.755 49.1759 10.755C48.2507 10.755 47.5995 10.8939 47.2222 11.1717C46.8449 11.4495 46.6178 11.9621 46.5408 12.7095H42.0544C42.3254 9.27768 44.7095 7.56226 49.2066 7.56323C53.6422 7.56807 55.8601 9.09423 55.8601 12.1417V20.0194C55.8601 21.2653 56.0648 22.1758 56.4742 22.7508ZM48.1391 20.0775C49.1627 20.0775 49.9738 19.8137 50.5724 19.2861C51.1709 18.7585 51.4697 17.968 51.4688 16.9148V15.8213C51.1982 16.1118 50.6967 16.302 49.964 16.4022L48.1098 16.5982C46.6622 16.7521 45.9383 17.3465 45.9383 18.3814C45.9301 18.6187 45.9789 18.8545 46.0806 19.0694C46.1823 19.2842 46.334 19.472 46.5232 19.6171C46.8986 19.9231 47.4357 20.0765 48.1347 20.0775H48.1391Z"
    fill="#283036"
  />
  <path
    d="M64.7537 23.1821C62.3994 23.1821 60.6475 22.775 59.4981 21.9609C58.3488 21.1467 57.7073 19.8398 57.5737 18.0402H61.9738C62.0508 18.8263 62.3067 19.3819 62.7415 19.7072C63.1763 20.0325 63.8763 20.1932 64.8414 20.1893C66.5201 20.1893 67.3595 19.7101 67.3595 18.7517C67.3692 18.5441 67.3234 18.3377 67.2268 18.1533C67.1303 17.969 66.9864 17.8132 66.8097 17.7019C66.4431 17.4618 65.7675 17.2653 64.7829 17.1123L62.8424 16.7972C59.485 16.2793 57.8057 14.7647 57.8048 12.2536C57.8048 10.7589 58.3838 9.60396 59.542 8.78885C60.7001 7.97373 62.3604 7.56666 64.5226 7.56763C68.9817 7.56763 71.298 9.26175 71.4715 12.65H67.2732C67.2528 11.2521 66.3359 10.5527 64.5226 10.5517C62.9979 10.5517 62.2356 11.0212 62.2356 11.9602C62.2281 12.1542 62.2723 12.3467 62.3637 12.5183C62.4551 12.6899 62.5905 12.8345 62.7562 12.9375C63.1042 13.1679 63.6545 13.3407 64.4071 13.4559L66.6357 13.7725C68.4314 14.0406 69.7538 14.5484 70.6029 15.2957C71.452 16.0431 71.8766 17.0687 71.8766 18.3727C71.8766 19.9062 71.2541 21.0896 70.0092 21.9231C68.7643 22.7566 67.0124 23.1763 64.7537 23.1821Z"
    fill="#283036"
  />
  <path
    d="M81.9814 7.91478V11.1936H79.1109V18.1216C79.1109 18.6211 79.2352 18.9609 79.4867 19.1381C79.7382 19.3152 80.1813 19.4111 80.8188 19.4111H81.977V22.7509C81.2854 22.8365 80.5887 22.8748 79.8917 22.8656C78.02 22.8656 76.6688 22.535 75.8382 21.8739C75.0076 21.2127 74.5928 20.125 74.5938 18.611V11.1936H72.3682V7.91478H74.5982V3.51636H79.1109V7.91478H81.9814Z"
    fill="#283036"
  />
  <path
    d="M109.652 15.7648V16.6564H98.5916C98.7466 17.6719 99.1229 18.4463 99.7205 18.9797C100.318 19.5131 101.081 19.7818 102.009 19.7857C103.471 19.7857 104.475 19.2295 105.02 18.1172H109.304C108.93 19.6033 108.011 20.8976 106.728 21.7474C105.415 22.6448 103.842 23.0935 102.009 23.0935C99.6927 23.0935 97.82 22.3844 96.3908 20.9662C94.9617 19.548 94.2476 17.6695 94.2485 15.3306C94.2485 12.9724 94.9534 11.0938 96.363 9.69499C97.7522 8.2787 99.6147 7.57056 101.951 7.57056C104.267 7.57056 106.139 8.30823 107.567 9.78356C108.958 11.2792 109.653 13.273 109.652 15.7648ZM101.892 10.877C100.04 10.877 98.9494 11.8543 98.6208 13.8088H105.222C105.07 12.8901 104.701 12.1713 104.116 11.6524C103.531 11.1335 102.79 10.8751 101.892 10.877Z"
    fill="#283036"
  />
  <path
    d="M122.003 8.37494V9.84156C121.562 9.2962 121.015 8.84397 120.395 8.51144C119.718 8.16097 118.964 7.98566 118.201 8.00175C117.196 7.99555 116.2 8.19629 115.277 8.5913C114.375 8.97638 113.557 9.53001 112.867 10.222C112.167 10.916 111.608 11.7361 111.219 12.6383C110.827 13.567 110.625 14.5639 110.625 15.5708C110.625 16.5778 110.827 17.5746 111.219 18.5034C111.605 19.4018 112.161 20.2188 112.855 20.911C113.545 21.6034 114.364 22.1575 115.265 22.5431C116.188 22.9374 117.184 23.1382 118.189 23.1327C118.952 23.1483 119.707 22.9725 120.383 22.6215C121.004 22.2899 121.551 21.8375 121.991 21.2914V22.9483C122.001 23.4056 121.887 23.8571 121.66 24.2551C121.433 24.633 121.121 24.9528 120.747 25.1888C120.342 25.446 119.898 25.6354 119.431 25.7494C118.932 25.8756 118.419 25.9386 117.904 25.9367C117.299 25.9386 116.702 25.7943 116.165 25.516C115.628 25.2377 115.168 24.8339 114.823 24.3394C114.625 23.9608 114.502 23.5475 114.462 23.1225H110.303C110.333 23.865 110.501 24.5957 110.799 25.2774C110.802 25.285 110.805 25.2922 110.809 25.2992C110.833 25.35 110.856 25.3994 110.881 25.4444C111.276 26.2828 111.821 27.0429 112.489 27.6879C113.208 28.3844 114.051 28.9422 114.975 29.3332C115.904 29.7295 116.904 29.9326 117.915 29.93C118.958 29.9352 119.996 29.7703 120.985 29.4421C121.924 29.1334 122.798 28.6554 123.562 28.0321C124.303 27.4286 124.907 26.677 125.336 25.8263C125.782 24.9323 126.01 23.9462 126 22.9483V8.37494H122.003ZM121.287 17.4462C120.995 17.999 120.563 18.4672 120.035 18.8054C119.505 19.1462 118.885 19.3244 118.254 19.318C117.626 19.3234 117.01 19.149 116.48 18.8156C115.943 18.4785 115.502 18.0106 115.199 17.4564C114.887 16.8754 114.724 16.2271 114.724 15.5687C114.724 14.9102 114.887 14.2619 115.199 13.6809C115.503 13.1275 115.944 12.6601 116.48 12.3232C117.013 11.9935 117.629 11.8187 118.257 11.8187C118.886 11.8187 119.501 11.9935 120.035 12.3232C120.565 12.6585 120.997 13.1269 121.287 13.6809C121.593 14.2631 121.75 14.9117 121.743 15.5687C121.75 16.2224 121.593 16.8678 121.287 17.4462Z"
    fill="#283036"
  />
  <path
    fillRule="evenodd"
    clipRule="evenodd"
    d="M16.281 22.3275C17.9642 21.8634 19.4726 20.9178 20.6184 19.6085L24.1689 23.1342C22.3214 25.1391 19.9194 26.5583 17.2636 27.2139C14.6078 27.8696 11.8162 27.7326 9.2384 26.8202C6.66059 25.9078 4.41115 24.2604 2.77174 22.0845C1.13233 19.9085 0.175825 17.3006 0.0219949 14.5873C-0.131835 11.874 0.523848 9.17598 1.90694 6.83102C3.29003 4.48605 5.33906 2.5984 7.79744 1.40441C10.2558 0.210429 13.0143 -0.236811 15.7274 0.118696C18.4406 0.474203 20.9878 1.61666 23.0502 3.403L19.4924 6.93451C18.1335 5.8446 16.4816 5.17584 14.7426 5.01155C13.0037 4.84727 11.2545 5.19471 9.71293 6.01061C8.17141 6.8265 6.90571 8.07478 6.07353 9.59991C5.24134 11.1251 4.87947 12.8596 5.03298 14.5875C5.18649 16.3155 5.8486 17.9603 6.93683 19.3172C8.02506 20.6741 9.49129 21.6831 11.1529 22.2184C12.8144 22.7536 14.5979 22.7916 16.281 22.3275ZM14.9654 12.7341L25.2016 2.57666L29.0328 6.38117L15.3939 19.9249L7.95801 12.5424L11.3681 9.15324L14.9654 12.7341Z"
    fill="url(#paint0_linear_1289_25647)"
  />
  <defs>
    <linearGradient
      id="paint0_linear_1289_25647"
      x1="-6.00005"
      y1="-5.50002"
      x2="31.8349"
      y2="-4.52922"
      gradientUnits="userSpaceOnUse"
    >
      <stop stop-color="#821ED9" />
      <stop offset="1" stop-color="#5986E7" />
    </linearGradient>
  </defs>
</svg>
