<svg width="64" height="16" viewBox="0 0 64 16" fill="none" xmlns="http://www.w3.org/2000/svg">
  <path d="M40.7167 13.7875C40.5408 13.7893 40.3723 13.8563 40.2457 13.9747C40.1119 14.09 40.0254 14.2483 40.0021 14.4204C39.9999 14.4531 39.9999 14.4859 40.0021 14.5185C40.0005 14.6501 40.0469 14.778 40.1331 14.8796C40.185 14.9412 40.2506 14.9907 40.325 15.0242C40.3994 15.0578 40.4807 15.0746 40.5628 15.0735C40.7343 15.0695 40.8982 15.0035 41.0223 14.8885C41.1578 14.7738 41.2459 14.6155 41.2704 14.4427C41.2727 14.4108 41.2727 14.3788 41.2704 14.3469C41.2746 14.2149 41.2279 14.0862 41.1395 13.9858C41.0882 13.9233 41.0228 13.873 40.9483 13.839C40.8738 13.805 40.7921 13.7881 40.7098 13.7897L40.7167 13.7875Z" fill="#0256A0"/>
  <mask id="mask0_379_388" style="mask-type:luminance" maskUnits="userSpaceOnUse" x="40" y="13" width="2" height="3">
  <path d="M40.726 13.783C40.5501 13.7848 40.3816 13.8518 40.255 13.9702C40.1212 14.0855 40.0347 14.2438 40.0114 14.4159C40.0092 14.4486 40.0092 14.4813 40.0114 14.514C40.0098 14.6456 40.0561 14.7735 40.1424 14.8751C40.1943 14.9367 40.2599 14.9861 40.3343 15.0197C40.4087 15.0533 40.49 15.0701 40.572 15.069C40.7436 15.0649 40.9075 14.999 41.0316 14.884C41.167 14.7693 41.2552 14.611 41.2797 14.4382C41.2819 14.4063 41.2819 14.3743 41.2797 14.3424C41.2839 14.2104 41.2372 14.0817 41.1487 13.9813C41.0975 13.9188 41.0321 13.8685 40.9575 13.8345C40.883 13.8005 40.8014 13.7836 40.7191 13.7852L40.726 13.783Z" fill="white"/>
  </mask>
  <g mask="url(#mask0_379_388)">
  <path d="M41.2914 13.7825H40.0024V15.0641H41.2914V13.7825Z" fill="#0256A0"/>
  </g>
  <path d="M42.2729 12.2801C41.8627 12.5822 41.5918 13.0291 41.5193 13.5237C41.5058 13.6093 41.4989 13.6957 41.4986 13.7823C41.4889 14.0951 41.6013 14.4 41.8134 14.6359C41.95 14.7845 42.1191 14.9016 42.3083 14.9787C42.4975 15.0558 42.7021 15.091 42.9071 15.0816C43.2291 15.081 43.5499 15.0436 43.8629 14.9702L43.9134 14.9568L44.1891 13.9316L44.0352 13.9918C43.7681 14.1064 43.4814 14.1722 43.1897 14.1857C43.1021 14.1937 43.0138 14.184 42.9304 14.1571C42.8469 14.1303 42.7701 14.0868 42.7049 14.0297C42.6629 13.9867 42.6304 13.9359 42.6094 13.8803C42.5885 13.8247 42.5795 13.7656 42.5831 13.7065C42.5831 13.6708 42.5831 13.6307 42.5831 13.5884C42.6008 13.4668 42.6435 13.3499 42.7087 13.2447C42.7738 13.1394 42.86 13.0478 42.9622 12.9755C43.1103 12.8729 43.2782 12.8003 43.4558 12.762C43.6334 12.7237 43.8172 12.7205 43.9961 12.7526C44.049 12.7682 44.1524 12.8038 44.3017 12.8573L44.389 12.893L44.6647 11.919L44.5866 11.8945C44.3164 11.8151 44.0349 11.7775 43.7526 11.7831C43.2148 11.7769 42.6916 11.9526 42.2729 12.2801Z" fill="#0256A0"/>
  <mask id="mask1_379_388" style="mask-type:luminance" maskUnits="userSpaceOnUse" x="41" y="11" width="4" height="5">
  <path d="M42.2788 12.2847C41.8685 12.5867 41.5977 13.0337 41.5252 13.5283C41.5117 13.6139 41.5048 13.7003 41.5045 13.7868C41.4947 14.0997 41.6072 14.4046 41.8193 14.6405C41.9559 14.789 42.1249 14.9062 42.3141 14.9833C42.5033 15.0604 42.7079 15.0956 42.9129 15.0862C43.2349 15.0856 43.5557 15.0482 43.8687 14.9748L43.9193 14.9614L44.195 13.9362L44.041 13.9963C43.7739 14.111 43.4873 14.1767 43.1955 14.1903C43.108 14.1983 43.0197 14.1885 42.9362 14.1617C42.8528 14.1348 42.776 14.0914 42.7107 14.0342C42.6687 13.9913 42.6362 13.9405 42.6153 13.8849C42.5943 13.8293 42.5854 13.7702 42.589 13.7111C42.589 13.6754 42.589 13.6353 42.589 13.5929C42.6067 13.4714 42.6494 13.3545 42.7145 13.2492C42.7796 13.144 42.8658 13.0524 42.9681 12.98C43.1162 12.8775 43.284 12.8049 43.4617 12.7666C43.6393 12.7283 43.8231 12.7251 44.002 12.7572C44.0548 12.7728 44.1582 12.8084 44.3076 12.8619L44.3949 12.8976L44.6706 11.9236L44.5925 11.8991C44.3222 11.8197 44.0408 11.7821 43.7584 11.7876C43.2207 11.7815 42.6975 11.9572 42.2788 12.2847Z" fill="white"/>
  </mask>
  <g mask="url(#mask1_379_388)">
  <path d="M44.6692 11.7847H41.4985V15.0788H44.6692V11.7847Z" fill="#0256A0"/>
  </g>
  <path d="M45.7237 14.0227C45.6527 13.9354 45.6168 13.8262 45.6226 13.7151C45.6206 13.6765 45.6206 13.6379 45.6226 13.5992C45.6584 13.3669 45.7566 13.1478 45.9075 12.964C45.9661 12.877 46.0457 12.8051 46.1393 12.7547C46.233 12.7042 46.338 12.6766 46.4451 12.6743C46.5098 12.6695 46.5748 12.6806 46.6338 12.7067C46.6929 12.7328 46.7442 12.7731 46.7829 12.8236C46.8461 12.9108 46.8777 13.0158 46.8725 13.1223C46.8757 13.1631 46.8757 13.2041 46.8725 13.2449C46.8409 13.4886 46.7362 13.718 46.5715 13.9046C46.5126 13.9888 46.434 14.0583 46.3422 14.1075C46.2504 14.1567 46.1479 14.1841 46.043 14.1876C45.9814 14.1881 45.9206 14.1744 45.8655 14.1477C45.8104 14.1209 45.7626 14.0819 45.726 14.0339M46.5991 11.7895C46.1006 11.7917 45.6214 11.9764 45.2573 12.3066C44.8741 12.6176 44.6229 13.0549 44.5519 13.5346C44.5409 13.6129 44.5355 13.6918 44.5358 13.7709C44.5307 14.0872 44.6461 14.3943 44.8598 14.6334C44.9931 14.7805 45.1586 14.8969 45.3443 14.974C45.5299 15.0512 45.731 15.0871 45.9328 15.0791C46.4292 15.0794 46.9069 14.8952 47.2677 14.5643C47.6481 14.2383 47.8931 13.7891 47.9569 13.3006C47.9704 13.2158 47.9773 13.1301 47.9776 13.0443C47.9857 12.7376 47.876 12.4389 47.6697 12.2063C47.5331 12.0648 47.3663 11.9539 47.181 11.8811C46.9958 11.8084 46.7964 11.7756 46.5968 11.785L46.5991 11.7895Z" fill="#0256A0"/>
  <mask id="mask2_379_388" style="mask-type:luminance" maskUnits="userSpaceOnUse" x="44" y="11" width="4" height="5">
  <path d="M45.7149 14.0273C45.6439 13.94 45.608 13.8307 45.6138 13.7197C45.6118 13.6811 45.6118 13.6424 45.6138 13.6038C45.6496 13.3715 45.7479 13.1524 45.8987 12.9686C45.9573 12.8816 46.0369 12.8097 46.1306 12.7592C46.2242 12.7087 46.3292 12.6812 46.4363 12.6789C46.501 12.674 46.566 12.6852 46.6251 12.7113C46.6841 12.7374 46.7354 12.7776 46.7741 12.8282C46.8373 12.9153 46.8689 13.0204 46.8637 13.1269C46.8669 13.1677 46.8669 13.2087 46.8637 13.2495C46.8321 13.4932 46.7274 13.7226 46.5627 13.9092C46.5038 13.9934 46.4252 14.0629 46.3334 14.1121C46.2416 14.1613 46.1391 14.1887 46.0342 14.1922C45.9726 14.1927 45.9118 14.179 45.8567 14.1522C45.8016 14.1255 45.7538 14.0865 45.7172 14.0384M46.5903 11.7941C46.0918 11.7963 45.6126 11.981 45.2485 12.3111C44.8653 12.6222 44.6141 13.0595 44.5431 13.5392C44.5321 13.6175 44.5267 13.6964 44.527 13.7754C44.5219 14.0918 44.6373 14.3989 44.851 14.638C44.9843 14.7851 45.1498 14.9015 45.3355 14.9786C45.5211 15.0557 45.7222 15.0916 45.924 15.0837C46.4204 15.084 46.8981 14.8997 47.2589 14.5689C47.6393 14.2429 47.8843 13.7937 47.9482 13.3052C47.9616 13.2204 47.9685 13.1347 47.9688 13.0489C47.9769 12.7422 47.8672 12.4435 47.661 12.2108C47.5243 12.0694 47.3575 11.9584 47.1722 11.8857C46.987 11.813 46.7876 11.7802 46.588 11.7896L46.5903 11.7941Z" fill="white"/>
  </mask>
  <g mask="url(#mask2_379_388)">
  <path d="M47.9707 11.7768H44.522V15.0709H47.9707V11.7768Z" fill="#0256A0"/>
  </g>
  <path d="M50.5976 11.7825C50.2795 11.7972 49.9748 11.9114 49.7291 12.1079L49.8049 11.8316H48.7388L47.8428 15.0232H48.9066L49.4649 13.0485C49.7751 12.7498 50.0209 12.6139 50.1542 12.6183C50.1736 12.6161 50.1933 12.6184 50.2117 12.625C50.2301 12.6315 50.2466 12.6422 50.2599 12.6562C50.2888 12.7023 50.3017 12.7562 50.2966 12.81C50.2987 12.8486 50.2987 12.8873 50.2966 12.9259C50.2825 13.0162 50.2625 13.1055 50.2369 13.1933L49.7314 15.0232H50.7975L51.3535 13.0529C51.6591 12.752 51.9072 12.6072 52.0704 12.6072C52.0869 12.6046 52.1038 12.6066 52.1193 12.6129C52.1347 12.6192 52.148 12.6296 52.1577 12.6428C52.1868 12.6905 52.1997 12.7459 52.1944 12.8011C52.1975 12.8456 52.1975 12.8903 52.1944 12.9348C52.1833 13.0146 52.1664 13.0935 52.1439 13.1711L51.6108 15.0232H52.6746L53.2146 13.0864C53.2402 13.0039 53.2594 12.9197 53.272 12.8345C53.2828 12.7652 53.2882 12.6951 53.2881 12.625C53.2951 12.4291 53.2354 12.2364 53.1181 12.0767C53.0383 11.9787 52.9351 11.9011 52.8174 11.8506C52.6996 11.8001 52.571 11.7783 52.4426 11.787C52.028 11.8182 51.6371 11.9866 51.3351 12.2639C51.2932 12.1159 51.1987 11.9869 51.0685 11.8997C50.9382 11.8125 50.7805 11.7726 50.6229 11.787H50.5976" fill="#0256A0"/>
  <mask id="mask3_379_388" style="mask-type:luminance" maskUnits="userSpaceOnUse" x="47" y="11" width="7" height="5">
  <path d="M50.5888 11.7758C50.2707 11.7904 49.966 11.9046 49.7203 12.1012L49.7961 11.8248H48.73L47.834 15.0164H48.8978L49.4561 13.0417C49.7663 12.743 50.0121 12.6071 50.1454 12.6115C50.1648 12.6093 50.1845 12.6116 50.2029 12.6182C50.2213 12.6248 50.2378 12.6355 50.2511 12.6494C50.28 12.6955 50.2929 12.7495 50.2878 12.8032C50.2899 12.8418 50.2899 12.8805 50.2878 12.9191C50.2737 13.0094 50.2537 13.0987 50.2281 13.1866L49.7226 15.0164H50.7887L51.3447 13.0462C51.6503 12.7453 51.8984 12.6004 52.0616 12.6004C52.0781 12.5978 52.0951 12.5998 52.1105 12.6061C52.1259 12.6124 52.1392 12.6228 52.1489 12.6361C52.178 12.6837 52.1909 12.7391 52.1857 12.7943C52.1887 12.8388 52.1887 12.8835 52.1857 12.928C52.1745 13.0078 52.1576 13.0868 52.1351 13.1643L51.6021 15.0164H52.6658L53.2058 13.0796C53.2314 12.9971 53.2506 12.913 53.2632 12.8277C53.274 12.7584 53.2794 12.6884 53.2793 12.6182C53.2863 12.4223 53.2266 12.2296 53.1093 12.07C53.0295 11.972 52.9263 11.8943 52.8086 11.8438C52.6908 11.7933 52.5622 11.7715 52.4338 11.7802C52.0192 11.8115 51.6283 11.9798 51.3263 12.2572C51.2844 12.1091 51.19 11.9802 51.0597 11.8929C50.9294 11.8057 50.7717 11.7658 50.6141 11.7802H50.5888" fill="white"/>
  </mask>
  <g mask="url(#mask3_379_388)">
  <path d="M53.2793 11.7749H47.834V15.0133H53.2793V11.7749Z" fill="#0256A0"/>
  </g>
  <path d="M53.965 13.7875C53.7888 13.7879 53.6198 13.8551 53.494 13.9747C53.3603 14.0904 53.2732 14.2484 53.2482 14.4204C53.2482 14.4539 53.2482 14.4851 53.2482 14.5185C53.2455 14.6502 53.292 14.7785 53.3791 14.8796C53.4306 14.9412 53.4958 14.9906 53.5698 15.0242C53.6438 15.0578 53.7248 15.0746 53.8065 15.0735C53.982 15.0722 54.1505 15.0061 54.2775 14.8885C54.4122 14.7732 54.5001 14.6152 54.5256 14.4427C54.5278 14.4108 54.5278 14.3788 54.5256 14.3469C54.5287 14.214 54.4812 14.0847 54.3924 13.9836C54.3414 13.9221 54.2766 13.8726 54.2029 13.839C54.1293 13.8054 54.0487 13.7886 53.9673 13.7897L53.965 13.7875Z" fill="#0256A0"/>
  <mask id="mask4_379_388" style="mask-type:luminance" maskUnits="userSpaceOnUse" x="53" y="13" width="2" height="3">
  <path d="M53.9645 13.7833C53.7884 13.7838 53.6193 13.8509 53.4935 13.9705C53.3598 14.0863 53.2727 14.2442 53.2477 14.4163C53.2477 14.4497 53.2477 14.4809 53.2477 14.5144C53.245 14.6461 53.2915 14.7743 53.3786 14.8754C53.4301 14.937 53.4953 14.9865 53.5693 15.02C53.6433 15.0536 53.7243 15.0705 53.806 15.0693C53.9815 15.0681 54.15 15.0019 54.277 14.8843C54.4117 14.7691 54.4996 14.611 54.5251 14.4386C54.5273 14.4067 54.5273 14.3747 54.5251 14.3427C54.5282 14.2099 54.4807 14.0806 54.3919 13.9795C54.3409 13.9179 54.2761 13.8685 54.2024 13.8349C54.1288 13.8013 54.0482 13.7844 53.9668 13.7856L53.9645 13.7833Z" fill="white"/>
  </mask>
  <g mask="url(#mask4_379_388)">
  <path d="M54.5297 13.7833H53.2407V15.0649H54.5297V13.7833Z" fill="#0256A0"/>
  </g>
  <path d="M55.9777 14.1309C55.9371 14.0586 55.9181 13.9768 55.9225 13.8946C55.9194 13.8486 55.9194 13.8025 55.9225 13.7564C55.9593 13.4712 56.088 13.2044 56.2901 12.9942C56.3928 12.8932 56.5163 12.8142 56.6524 12.7624C56.7886 12.7106 56.9344 12.6871 57.0805 12.6933H57.1632L56.7933 14.0061C56.6252 14.1411 56.4163 14.2194 56.1982 14.2289C56.1528 14.2347 56.1067 14.2271 56.0658 14.2073C56.0249 14.1874 55.991 14.1562 55.9685 14.1175M55.6192 12.2988C55.1875 12.647 54.9117 13.1439 54.8495 13.6851C54.8342 13.778 54.8265 13.8719 54.8266 13.9659C54.8203 14.2154 54.8899 14.4611 55.0264 14.6725C55.1065 14.798 55.219 14.9011 55.3528 14.9715C55.4866 15.0419 55.6371 15.0771 55.7893 15.0736C56.0613 15.0691 56.3268 14.992 56.5567 14.8508L56.5199 15.0224H57.5814L58.4614 11.9021L58.3741 11.8843C58.042 11.8143 57.7029 11.7799 57.3631 11.7818C56.7393 11.753 56.1253 11.9402 55.6307 12.31" fill="#0256A0"/>
  <mask id="mask5_379_388" style="mask-type:luminance" maskUnits="userSpaceOnUse" x="54" y="11" width="5" height="5">
  <path d="M55.9816 14.1281C55.9411 14.0558 55.922 13.9741 55.9264 13.8919C55.9233 13.8459 55.9233 13.7997 55.9264 13.7537C55.9632 13.4684 56.0919 13.2017 56.294 12.9915C56.3968 12.8905 56.5202 12.8115 56.6563 12.7597C56.7925 12.7078 56.9383 12.6843 57.0844 12.6906H57.1671L56.7972 14.0033C56.6291 14.1384 56.4202 14.2166 56.2021 14.2262C56.1567 14.2319 56.1106 14.2244 56.0697 14.2045C56.0288 14.1847 55.9949 14.1534 55.9724 14.1148M55.6231 12.2961C55.1915 12.6443 54.9156 13.1411 54.8534 13.6824C54.8381 13.7752 54.8304 13.8691 54.8305 13.9632C54.8243 14.2126 54.8938 14.4583 55.0304 14.6697C55.1104 14.7953 55.2229 14.8984 55.3567 14.9687C55.4905 15.0391 55.641 15.0743 55.7932 15.0709C56.0652 15.0663 56.3307 14.9892 56.5606 14.848L56.5238 15.0196H57.5853L58.4653 11.8994L58.378 11.8815C58.0459 11.8115 57.7069 11.7772 57.367 11.779C56.7432 11.7502 56.1292 11.9374 55.6346 12.3072" fill="white"/>
  </mask>
  <g mask="url(#mask5_379_388)">
  <path d="M58.4626 11.777H54.8301V15.0711H58.4626V11.777Z" fill="#0256A0"/>
  </g>
  <path d="M61.7535 11.8287H60.7977L60.2371 13.8346C59.9384 14.111 59.6833 14.2402 59.4972 14.2358C59.4798 14.2384 59.4619 14.2363 59.4457 14.2296C59.4294 14.2229 59.4154 14.2119 59.4053 14.1979C59.375 14.1458 59.3621 14.0858 59.3686 14.0263C59.3686 13.9839 59.3686 13.9349 59.3686 13.8792C59.3879 13.7634 59.414 13.6488 59.4467 13.5359L59.9292 11.8265H58.8677L58.3048 13.8034C58.2818 13.8903 58.2657 13.975 58.2519 14.0508C58.2411 14.1186 58.2358 14.1872 58.2358 14.2558C58.2293 14.4448 58.2875 14.6305 58.4013 14.784C58.482 14.8798 58.5854 14.9553 58.7025 15.0042C58.8197 15.0531 58.9473 15.0739 59.0745 15.0649C59.393 15.0625 59.7037 14.9695 59.9682 14.7974L59.9016 15.0203H60.9723L61.8707 11.8332L61.7535 11.8287Z" fill="#0256A0"/>
  <mask id="mask6_379_388" style="mask-type:luminance" maskUnits="userSpaceOnUse" x="58" y="11" width="4" height="5">
  <path d="M61.7505 11.8294H60.7947L60.2341 13.8353C59.9354 14.1117 59.6804 14.241 59.4943 14.2365C59.4769 14.2392 59.459 14.237 59.4427 14.2303C59.4265 14.2236 59.4125 14.2127 59.4024 14.1986C59.372 14.1465 59.3592 14.0865 59.3656 14.027C59.3656 13.9847 59.3656 13.9356 59.3656 13.8799C59.385 13.7642 59.4111 13.6496 59.4438 13.5367L59.9262 11.8272H58.8648L58.3018 13.8041C58.2789 13.891 58.2628 13.9757 58.249 14.0515C58.2382 14.1194 58.2328 14.1879 58.2329 14.2566C58.2264 14.4455 58.2846 14.6313 58.3983 14.7848C58.4791 14.8805 58.5824 14.956 58.6996 15.0049C58.8168 15.0538 58.9443 15.0746 59.0715 15.0656C59.39 15.0633 59.7008 14.9703 59.9653 14.7982L59.8987 15.021H60.9694L61.8677 11.8339L61.7505 11.8294Z" fill="white"/>
  </mask>
  <g mask="url(#mask6_379_388)">
  <path d="M61.8634 11.8306H58.2446V15.069H61.8634V11.8306Z" fill="#0256A0"/>
  </g>
  <path d="M28.2614 3.37329L26.653 4.93347L27.0942 3.35769H24.2359L22.3012 10.3785H25.1435L26.5221 5.39038C26.7954 5.27493 27.0902 5.215 27.3883 5.2143C27.7155 5.21551 28.0393 5.27834 28.3418 5.3993C28.6902 5.51997 29.0093 5.70888 29.2793 5.95428L29.9686 3.39558C29.7016 3.27898 29.4112 3.22113 29.1185 3.22618C28.8207 3.22684 28.5251 3.27426 28.243 3.3666M9.14935 8.62665L10.1098 5.26334C10.3451 5.06123 10.6458 4.94532 10.9599 4.9357C11.0981 4.9336 11.2347 4.96514 11.3571 5.02744C11.4795 5.08973 11.5839 5.1808 11.6607 5.29231C11.7797 5.50039 11.8363 5.73667 11.8238 5.97433C11.8238 6.55829 11.3643 8.74477 9.79959 8.74477C9.58425 8.74779 9.37039 8.70993 9.17003 8.63333M11.7181 3.34431L10.2109 4.9045L10.6336 3.35546H7.84427L5.08706 13.3228H7.87184L8.66454 10.4788C9.05411 10.5656 9.45274 10.6082 9.85244 10.6058C13.6022 10.6058 14.6776 7.18013 14.6776 5.66007C14.6776 4.09989 13.7998 3.18384 12.5407 3.18384C12.2521 3.17891 11.9662 3.23759 11.7044 3.35546M2.2701 3.70093C1.94867 3.91758 1.6861 4.20652 1.50484 4.54303C1.32358 4.87955 1.22903 5.25364 1.22926 5.63332C1.22926 6.62961 1.88869 7.01297 2.57799 7.3941C3.2673 7.77523 3.49706 7.89336 3.49706 8.221C3.49706 8.63333 3.11335 8.81832 2.68828 8.81832C1.95532 8.81832 1.17871 8.35027 0.533061 7.94908L0.358437 8.5687L0.264233 8.90971L0 9.88148C0.912167 10.319 1.91218 10.5572 2.92954 10.5791C4.88026 10.5791 6.2267 9.50035 6.2267 8.10733C6.2267 7.07092 5.47996 6.65859 4.71713 6.24402C4.20475 5.97433 3.9543 5.83392 3.9543 5.50628C3.9543 5.09395 4.3518 4.90895 4.83661 4.90895C5.49476 4.93427 6.12204 5.18636 6.60582 5.61995L7.1228 3.75665C6.30225 3.3497 5.39282 3.14024 4.47128 3.14595C3.69747 3.11235 2.9312 3.30575 2.2724 3.70093M17.7909 8.50629C17.6053 8.26485 17.5163 7.96628 17.5405 7.66602C17.5405 6.94165 17.9517 4.9357 19.1948 4.9357C19.5486 4.9357 20.1483 5.10955 20.1483 6.10361C20.1483 6.74328 19.7531 8.80495 18.4917 8.80495C18.3617 8.80451 18.2332 8.77771 18.1145 8.72628C17.9958 8.67485 17.8895 8.59992 17.8024 8.50629M14.7718 7.35398C14.7718 9.44908 16.3135 10.5791 18.5377 10.5791C21.7774 10.5791 22.9331 8.07835 22.9331 6.45799C22.9331 4.63926 21.5683 3.14595 19.1948 3.14595C18.6168 3.13067 18.0416 3.22845 17.5035 3.43347C16.9653 3.63848 16.4752 3.94653 16.0625 4.33924C15.6497 4.73195 15.3227 5.20128 15.1009 5.71923C14.8792 6.23719 14.7672 6.79315 14.7718 7.35398ZM31.5448 2.56422L31.3265 3.35991L29.7181 5.34803H30.7889L30.0697 7.8889C29.9996 8.17281 29.9558 8.46222 29.9387 8.75369C29.9387 9.78118 30.759 10.6036 32.1353 10.6036C32.5432 10.5944 32.948 10.533 33.3393 10.4209L34.7684 8.91862L34.4973 9.89039C35.4087 10.3279 36.4079 10.5661 37.4246 10.588C39.3753 10.588 40.7217 9.50926 40.7217 8.11624C40.7217 7.07984 39.975 6.6675 39.2121 6.25294C38.6998 5.98325 38.4516 5.84283 38.4516 5.5152C38.4516 5.10286 38.8491 4.91787 39.3316 4.91787C39.9904 4.94343 40.6183 5.19545 41.1031 5.62887L41.6178 3.76556C40.7966 3.35827 39.8863 3.1488 38.964 3.15486C38.1903 3.11772 37.4231 3.30805 36.7628 3.70093C36.4414 3.91758 36.1788 4.20652 35.9976 4.54303C35.8163 4.87955 35.7217 5.25364 35.722 5.63332C35.722 6.62961 36.3814 7.01297 37.0707 7.3941C37.76 7.77523 37.9898 7.89336 37.9898 8.221C37.9898 8.63333 37.6084 8.81832 37.1856 8.81832C36.4526 8.81832 35.6737 8.35027 35.0304 7.94908L34.8557 8.5687L34.626 8.60659H34.5639L34.4697 8.62219L34.3824 8.63556H34.3043L34.1527 8.65116H34.1044H33.9964H33.9505H33.8241C33.2681 8.65116 32.8866 8.42828 32.8866 7.98251C32.9028 7.72202 32.9522 7.46448 33.0337 7.21579L33.5736 5.31014H35.1131L35.6576 3.32202H34.1182L34.6949 1.36957L31.5448 2.56422Z" fill="#0256A0"/>
  <mask id="mask7_379_388" style="mask-type:luminance" maskUnits="userSpaceOnUse" x="0" y="1" width="42" height="13">
  <path d="M28.2614 3.37695L26.653 4.93713L27.0942 3.36135H24.2359L22.3012 10.3822H25.1435L26.5221 5.39404C26.7954 5.27859 27.0902 5.21866 27.3883 5.21797C27.7155 5.21918 28.0393 5.282 28.3418 5.40296C28.6902 5.52363 29.0093 5.71254 29.2793 5.95794L29.9686 3.39924C29.7016 3.28264 29.4112 3.2248 29.1185 3.22985C28.8207 3.2305 28.5251 3.27792 28.243 3.37026M9.14935 8.63031L10.1098 5.267C10.3451 5.06489 10.6458 4.94898 10.9599 4.93936C11.0981 4.93726 11.2347 4.9688 11.3571 5.0311C11.4795 5.09339 11.5839 5.18446 11.6607 5.29597C11.7797 5.50405 11.8363 5.74033 11.8238 5.978C11.8238 6.56195 11.3643 8.74844 9.79959 8.74844C9.58425 8.75145 9.37039 8.71359 9.17003 8.63699M11.7181 3.34798L10.2109 4.90816L10.6336 3.35912H7.84427L5.08706 13.3265H7.87184L8.66454 10.4825C9.05411 10.5692 9.45274 10.6118 9.85244 10.6095C13.6022 10.6095 14.6776 7.18379 14.6776 5.66373C14.6776 4.10355 13.7998 3.1875 12.5407 3.1875C12.2521 3.18258 11.9662 3.24126 11.7044 3.35912M2.2701 3.70459C1.94867 3.92124 1.6861 4.21018 1.50484 4.54669C1.32358 4.88321 1.22903 5.2573 1.22926 5.63699C1.22926 6.63327 1.88869 7.01663 2.57799 7.39776C3.2673 7.77889 3.49706 7.89702 3.49706 8.22466C3.49706 8.63699 3.11335 8.82199 2.68828 8.82199C1.95532 8.82199 1.17871 8.35393 0.533061 7.95274L0.358437 8.57236L0.264233 8.91337L0 9.88514C0.912167 10.3227 1.91218 10.5608 2.92954 10.5828C4.88026 10.5828 6.2267 9.50401 6.2267 8.11099C6.2267 7.07458 5.47996 6.66225 4.71713 6.24769C4.20475 5.978 3.9543 5.83758 3.9543 5.50994C3.9543 5.09761 4.3518 4.91261 4.83661 4.91261C5.49476 4.93793 6.12204 5.19002 6.60582 5.62361L7.1228 3.76031C6.30225 3.35337 5.39282 3.1439 4.47128 3.14961C3.69747 3.11601 2.9312 3.30941 2.2724 3.70459M17.7909 8.50995C17.6053 8.26852 17.5163 7.96995 17.5405 7.66968C17.5405 6.94531 17.9517 4.93936 19.1948 4.93936C19.5486 4.93936 20.1483 5.11321 20.1483 6.10727C20.1483 6.74694 19.7531 8.80861 18.4917 8.80861C18.3617 8.80817 18.2332 8.78138 18.1145 8.72994C17.9958 8.67851 17.8895 8.60358 17.8024 8.50995M14.7718 7.35764C14.7718 9.45275 16.3135 10.5828 18.5377 10.5828C21.7774 10.5828 22.9331 8.08201 22.9331 6.46165C22.9331 4.64293 21.5683 3.14961 19.1948 3.14961C18.6168 3.13433 18.0416 3.23211 17.5035 3.43713C16.9653 3.64215 16.4752 3.9502 16.0625 4.34291C15.6497 4.73562 15.3227 5.20494 15.1009 5.72289C14.8792 6.24085 14.7672 6.79682 14.7718 7.35764ZM31.5448 2.56788L31.3265 3.36358L29.7181 5.3517H30.7889L30.0697 7.89256C29.9996 8.17647 29.9558 8.46588 29.9387 8.75735C29.9387 9.78484 30.759 10.6073 32.1353 10.6073C32.5432 10.5981 32.948 10.5367 33.3393 10.4245L34.7684 8.92228L34.4973 9.89405C35.4087 10.3316 36.4079 10.5697 37.4246 10.5917C39.3753 10.5917 40.7217 9.51292 40.7217 8.1199C40.7217 7.0835 39.975 6.67116 39.2121 6.2566C38.6998 5.98691 38.4516 5.8465 38.4516 5.51886C38.4516 5.10652 38.8491 4.92153 39.3316 4.92153C39.9904 4.9471 40.6183 5.19911 41.1031 5.63253L41.6178 3.76922C40.7966 3.36193 39.8863 3.15246 38.964 3.15852C38.1903 3.12138 37.4231 3.31171 36.7628 3.70459C36.4414 3.92124 36.1788 4.21018 35.9976 4.54669C35.8163 4.88321 35.7217 5.2573 35.722 5.63699C35.722 6.63327 36.3814 7.01663 37.0707 7.39776C37.76 7.77889 37.9898 7.89702 37.9898 8.22466C37.9898 8.63699 37.6084 8.82199 37.1856 8.82199C36.4526 8.82199 35.6737 8.35393 35.0304 7.95274L34.8557 8.57236L34.626 8.61025H34.5639L34.4697 8.62585L34.3824 8.63922H34.3043L34.1527 8.65482H34.1044H33.9964H33.9505H33.8241C33.2681 8.65482 32.8866 8.43194 32.8866 7.98617C32.9028 7.72568 32.9522 7.46814 33.0337 7.21946L33.5736 5.3138H35.1131L35.6576 3.32569H34.1182L34.6949 1.37323L31.5448 2.56788Z" fill="white"/>
  </mask>
  <g mask="url(#mask7_379_388)">
  <path d="M41.6178 1.37323H0V13.3153H41.6178V1.37323Z" fill="#0256A0"/>
  </g>
  <path d="M43.9537 8.60617L44.9347 5.04014C45.1711 4.96333 45.4185 4.92345 45.6677 4.92202C47.3289 4.92202 46.527 7.23771 46.1846 7.85507C46.0414 8.12852 45.8466 8.37346 45.6102 8.5772C45.3475 8.80443 45.0128 8.93807 44.6613 8.95609C44.5228 8.96009 44.3855 8.93036 44.2619 8.86963C44.1383 8.80889 44.0323 8.71908 43.9537 8.6084M43.3678 0.0878296L40.436 10.6366H43.3839L43.8434 8.9962L44.5327 10.6366C44.7686 10.7714 45.0405 10.835 45.3139 10.8193C46.6511 10.8193 48.1123 9.85428 49.0291 8.19831C49.9228 6.58914 50.7844 2.96294 46.8142 2.96294C46.3671 2.96304 45.9212 3.00861 45.4839 3.09889L46.3133 0.0878296H43.3678Z" fill="#F2A71E"/>
  <mask id="mask8_379_388" style="mask-type:luminance" maskUnits="userSpaceOnUse" x="40" y="0" width="10" height="11">
  <path d="M43.961 8.60617L44.9421 5.04014C45.1784 4.96333 45.4258 4.92345 45.675 4.92202C47.3362 4.92202 46.5343 7.23771 46.192 7.85507C46.0488 8.12852 45.8539 8.37346 45.6176 8.5772C45.3548 8.80443 45.0202 8.93807 44.6687 8.95609C44.5301 8.96009 44.3928 8.93036 44.2692 8.86963C44.1456 8.80889 44.0396 8.71908 43.961 8.6084M43.3751 0.0878296L40.4434 10.6366H43.3912L43.8507 8.9962L44.54 10.6366C44.7759 10.7714 45.0478 10.835 45.3212 10.8193C46.6584 10.8193 48.1197 9.85428 49.0364 8.19831C49.9302 6.58914 50.7918 2.96294 46.8215 2.96294C46.3744 2.96304 45.9285 3.00861 45.4912 3.09889L46.3206 0.0878296H43.3751Z" fill="white"/>
  </mask>
  <g mask="url(#mask8_379_388)">
  <path d="M50.7957 0.0878296H40.4473V10.8193H50.7957V0.0878296Z" fill="#F2A71E"/>
  </g>
  <path d="M52.9641 5.67402C53.3018 5.12128 53.7016 4.84937 54.1795 4.84937C54.2746 4.84133 54.3703 4.8551 54.4589 4.88956C54.5475 4.92401 54.6265 4.9782 54.6896 5.04773C54.7488 5.13022 54.7899 5.22361 54.8105 5.32212C54.831 5.42064 54.8306 5.5222 54.8091 5.62052C54.8091 5.63613 54.8091 5.65619 54.8091 5.67624L52.9641 5.67402ZM51.4637 4.14063C50.6121 4.88907 50.0637 5.90781 49.9175 7.0135C49.7635 8.11451 49.9818 9.01939 50.5631 9.68802C51.1444 10.3566 52.0083 10.7021 53.1226 10.7043C53.998 10.6756 54.8617 10.4999 55.6753 10.185L55.7787 10.1471L56.592 7.80694L56.1049 7.99862C54.9331 8.46443 54.0715 8.69845 53.5362 8.69845C53.3564 8.71212 53.1758 8.68314 53.0101 8.61403C52.8444 8.54491 52.6985 8.43773 52.585 8.30173C52.491 8.1632 52.4267 8.00776 52.396 7.84466C52.3652 7.68155 52.3685 7.51411 52.4058 7.35228H56.8999L56.9527 7.20072C57.0718 6.86858 57.1573 6.52595 57.2078 6.17772C57.341 5.22826 57.1503 4.44597 56.6449 3.85311C56.1394 3.26026 55.3881 2.96161 54.4162 2.96161C53.3114 2.96728 52.2524 3.39019 51.4637 4.14063Z" fill="#F2A71E"/>
  <mask id="mask9_379_388" style="mask-type:luminance" maskUnits="userSpaceOnUse" x="49" y="2" width="9" height="9">
  <path d="M52.9734 5.6731C53.3111 5.12037 53.7109 4.84846 54.1888 4.84846C54.2839 4.84042 54.3796 4.85418 54.4682 4.88864C54.5568 4.9231 54.6358 4.97728 54.6989 5.04682C54.7581 5.12931 54.7992 5.22269 54.8198 5.32121C54.8403 5.41972 54.8398 5.52128 54.8183 5.61961C54.8183 5.63521 54.8183 5.65527 54.8183 5.67533L52.9734 5.6731ZM51.473 4.13971C50.6213 4.88815 50.073 5.90689 49.9267 7.01259C49.7728 8.1136 49.9911 9.01848 50.5724 9.68711C51.1537 10.3557 52.0176 10.7012 53.1319 10.7034C54.0073 10.6746 54.871 10.4989 55.6845 10.1841L55.7879 10.1462L56.6013 7.80603L56.1142 7.9977C54.9424 8.46351 54.0808 8.69753 53.5455 8.69753C53.3656 8.7112 53.1851 8.68223 53.0194 8.61311C52.8536 8.544 52.7078 8.43682 52.5943 8.30081C52.5003 8.16229 52.436 8.00685 52.4052 7.84374C52.3745 7.68064 52.3778 7.51319 52.415 7.35136H56.9092L56.962 7.1998C57.0811 6.86766 57.1665 6.52504 57.217 6.1768C57.3503 5.22735 57.1596 4.44505 56.6541 3.8522C56.1487 3.25935 55.3973 2.96069 54.4255 2.96069C53.3207 2.96636 52.2617 3.38927 51.473 4.13971Z" fill="white"/>
  </mask>
  <g mask="url(#mask9_379_388)">
  <path d="M57.3476 2.95435H49.7632V10.7015H57.3476V2.95435Z" fill="#F2A71E"/>
  </g>
  <path d="M59.2531 2.56386L59.0234 3.35953L57.415 5.34759H58.4857L57.7712 7.88838C57.703 8.17256 57.6599 8.46186 57.6425 8.75314C57.6425 9.7806 58.4627 10.603 59.839 10.603C60.2461 10.594 60.6502 10.5326 61.0407 10.4203L62.8604 8.51912L62.5663 8.57707L62.3365 8.61496H62.2768L62.1826 8.63056C62.1532 8.63284 62.124 8.63731 62.0953 8.64393H62.0171L61.8678 8.65953H61.8173H61.707H61.6656H61.5369C60.9809 8.65953 60.5995 8.43666 60.5995 7.9909C60.6159 7.73064 60.6645 7.47323 60.7443 7.22421L61.2865 5.31862H62.8282L63.3704 3.33056H61.831L62.3894 1.34027L59.2531 2.56386Z" fill="#F2A71E"/>
  <mask id="mask10_379_388" style="mask-type:luminance" maskUnits="userSpaceOnUse" x="57" y="1" width="7" height="10">
  <path d="M59.2487 2.56875L59.019 3.36441L57.4106 5.35247H58.4813L57.7668 7.89326C57.6986 8.17744 57.6555 8.46674 57.6381 8.75803C57.6381 9.78549 58.4583 10.6079 59.8346 10.6079C60.2417 10.5989 60.6458 10.5374 61.0363 10.4251L62.856 8.52401L62.5619 8.58195L62.3321 8.61984H62.2724L62.1782 8.63544C62.1488 8.63772 62.1196 8.64219 62.0909 8.64882H62.0127L61.8634 8.66442H61.8129H61.7026H61.6612H61.5325C60.9765 8.66442 60.5951 8.44154 60.5951 7.99579C60.6115 7.73552 60.6601 7.47811 60.7399 7.22909L61.2821 5.3235H62.8238L63.366 3.33544H61.8266L62.385 1.34515L59.2487 2.56875Z" fill="white"/>
  </mask>
  <g mask="url(#mask10_379_388)">
  <path d="M63.374 1.37445H57.4209V10.5993H63.374V1.37445Z" fill="#F2A71E"/>
  </g>
  </svg>
  